<svg width="26" height="14" viewBox="0 0 26 14" fill="none" xmlns="http://www.w3.org/2000/svg">
<path d="M0.812481 1.86794H25.1875C25.636 1.86794 26 1.50391 26 1.05546C26 0.606943 25.636 0.242981 25.1875 0.242981H0.812481C0.363962 0.242981 0 0.607011 0 1.05546C0 1.50391 0.364029 1.86794 0.812481 1.86794Z" fill="white"/>
<path d="M25.1875 5.93048H0.812481C0.363962 5.93048 0 6.29451 0 6.74296C0 7.19141 0.364029 7.55544 0.812481 7.55544H25.1875C25.636 7.55544 26 7.19141 26 6.74296C26 6.29451 25.636 5.93048 25.1875 5.93048Z" fill="white"/>
<path d="M25.1875 11.6405H0.812481C0.363962 11.6405 0 12.0045 0 12.453C0 12.9014 0.364029 13.2654 0.812481 13.2654H25.1875C25.636 13.2654 26 12.9014 26 12.453C26 12.0045 25.636 11.6405 25.1875 11.6405Z" fill="white"/>
</svg>
