<svg width="56" height="24" viewBox="0 0 56 24" fill="none" xmlns="http://www.w3.org/2000/svg">
<path d="M9.268 17H7.294L2.87 10.28V17H0.896V7.116H2.87L7.294 13.892V7.116H9.268V17ZM13.0282 8.684V11.246H16.5282V12.758H13.0282V15.418H16.9482V17H11.0542V7.116H16.9482V8.684H13.0282ZM24.2197 17L21.9937 13.626L20.0197 17H17.7657L20.8737 11.946L17.6817 7.116H20.0197L22.2037 10.42L24.1497 7.116H26.4037L23.3097 12.086L26.5577 17H24.2197ZM34.3445 7.116V8.684H31.6145V17H29.6405V8.684H26.9245V7.116H34.3445Z" fill="#796D75"/>
<path d="M46 16L50 12L46 8" stroke="#796D75" stroke-width="1.5" stroke-linecap="round" stroke-linejoin="round"/>
</svg>
