<svg width="56" height="24" viewBox="0 0 56 24" fill="none" xmlns="http://www.w3.org/2000/svg">
<path d="M10 16L6 12L10 8" stroke="#796D75" stroke-width="1.5" stroke-linecap="round" stroke-linejoin="round"/>
<path d="M23.87 13.332V17H21.896V7.116H25.494C26.6607 7.116 27.538 7.396 28.126 7.956C28.7233 8.516 29.022 9.27667 29.022 10.238C29.022 11.1807 28.714 11.932 28.098 12.492C27.4913 13.052 26.6233 13.332 25.494 13.332H23.87ZM25.284 11.75C26.4413 11.75 27.02 11.246 27.02 10.238C27.02 9.74333 26.8847 9.36533 26.614 9.104C26.3433 8.84267 25.9 8.712 25.284 8.712H23.87V11.75H25.284ZM35.4562 17L33.1462 13.15H32.2782V17H30.3042V7.116H34.0702C35.2182 7.116 36.0909 7.396 36.6882 7.956C37.2949 8.516 37.5982 9.25333 37.5982 10.168C37.5982 10.9147 37.3882 11.54 36.9682 12.044C36.5575 12.548 35.9602 12.884 35.1762 13.052L37.6402 17H35.4562ZM32.2782 11.792H33.9022C35.0315 11.792 35.5962 11.2927 35.5962 10.294C35.5962 9.818 35.4562 9.44933 35.1762 9.188C34.9055 8.91733 34.4809 8.782 33.9022 8.782H32.2782V11.792ZM40.9052 8.684V11.246H44.4052V12.758H40.9052V15.418H44.8252V17H38.9312V7.116H44.8252V8.684H40.9052ZM47.6726 7.116L50.3186 14.942L52.9786 7.116H55.0926L51.5926 17H49.0586L45.5586 7.116H47.6726Z" fill="#796D75"/>
</svg>
