<svg xmlns="http://www.w3.org/2000/svg" width="27" height="35" viewBox="0 0 27 35"><g><g><g/><g><g><g><path fill="#6ea753" d="M26.676 13.178c0 7.074-12.137 20.995-12.654 21.584a.697.697 0 0 1-1.048 0C12.457 34.174.32 20.253.32 13.179.32 5.912 6.232 0 13.498 0c7.266 0 13.178 5.912 13.178 13.178zm-7.5 12.735c3.994-5.66 6.106-10.063 6.106-12.735 0-6.497-5.286-11.784-11.784-11.784C7 1.394 1.714 6.681 1.714 13.178c0 2.674 2.114 7.08 6.113 12.745a110.143 110.143 0 0 0 5.671 7.309c1.016-1.2 3.36-4.034 5.678-7.318z"/></g></g></g><g><g><g><path fill="#6ea753" d="M22.845 12.903c0 5.151-4.19 9.342-9.342 9.342s-9.343-4.19-9.343-9.342S8.351 3.56 13.503 3.56c5.151 0 9.342 4.191 9.342 9.343zm-1.394 0c0-4.383-3.566-7.949-7.948-7.949-4.383 0-7.949 3.566-7.949 7.949 0 4.382 3.566 7.948 7.949 7.948 4.382 0 7.948-3.566 7.948-7.948z"/></g></g></g><g><g><g><path fill="#6ea753" d="M13.775 29.906l-.584-.763a.697.697 0 0 0-1.107.848l.584.763a.696.696 0 1 0 1.107-.848z"/></g></g></g><g><g><g><path fill="#6ea753" d="M11.364 26.753l-1.753-2.29a.697.697 0 0 0-1.107.848l1.753 2.29a.696.696 0 1 0 1.107-.848z"/></g></g></g></g></g></svg>