<svg width="1920" height="350" viewBox="0 0 1920 350" fill="none" xmlns="http://www.w3.org/2000/svg">
<g opacity="0.15">
<g opacity="0.2">
<mask id="path-1-inside-1" fill="white">
<path fill-rule="evenodd" clip-rule="evenodd" d="M644.618 -165.419C612.718 -155.583 565.189 -132.461 533.698 -78.7188C514.08 -45.2404 511.687 -1.91197 508.252 60.3054C508.151 62.1308 508.049 63.9725 507.946 65.8307C505.578 108.53 469.888 150.688 447.207 173.363C385.268 132.507 377.131 28.426 429.895 -62.9637C483.031 -154.999 578.197 -199.98 644.618 -165.419ZM653.715 -160.06C628.081 -144.405 590.291 -112.839 579.978 -58.9328C575.727 -36.7176 572.502 -17.127 569.579 0.629919C561.478 49.832 555.696 84.9562 536.846 122.831C519.068 158.552 490.161 175.407 466.698 183.359C532.322 208.399 620.494 163.437 670.879 76.1685C723.6 -15.1481 715.518 -119.135 653.715 -160.06Z"/>
</mask>
<path d="M533.698 -78.7188L531.972 -79.7299L533.698 -78.7188ZM644.618 -165.419L645.208 -163.508L649.865 -164.944L645.541 -167.193L644.618 -165.419ZM508.252 60.3054L510.249 60.4157L510.249 60.4157L508.252 60.3054ZM507.946 65.8307L509.943 65.9414L507.946 65.8307ZM447.207 173.363L446.105 175.033L447.467 175.931L448.621 174.778L447.207 173.363ZM653.715 -160.06L654.82 -161.728L653.759 -162.43L652.673 -161.767L653.715 -160.06ZM579.978 -58.9328L578.013 -59.3087L579.978 -58.9328ZM569.579 0.629919L571.552 0.954811L569.579 0.629919ZM536.846 122.831L535.056 121.94L536.846 122.831ZM466.698 183.359L466.056 181.464L460.796 183.247L465.985 185.227L466.698 183.359ZM535.423 -77.7076C566.577 -130.874 613.596 -153.761 645.208 -163.508L644.029 -167.33C611.839 -157.405 563.801 -134.048 531.972 -79.7299L535.423 -77.7076ZM510.249 60.4157C513.694 -1.98191 516.104 -44.7394 535.423 -77.7076L531.972 -79.7299C512.055 -45.7414 509.68 -1.84203 506.255 60.1951L510.249 60.4157ZM509.943 65.9414C510.046 64.083 510.148 62.2411 510.249 60.4157L506.255 60.1951C506.154 62.0206 506.052 63.862 505.949 65.7199L509.943 65.9414ZM448.621 174.778C460.019 163.382 474.717 147.062 486.875 128.189C499.019 109.339 508.732 87.7816 509.943 65.9414L505.949 65.7199C504.792 86.5794 495.476 107.451 483.513 126.023C471.563 144.572 457.076 160.668 445.792 171.949L448.621 174.778ZM448.308 171.694C417.993 151.697 400.68 116.119 397.532 74.0007C394.384 31.8925 405.423 -16.5784 431.627 -61.9637L428.163 -63.9637C401.602 -17.9593 390.329 31.3051 393.543 74.2989C396.756 117.283 414.482 154.173 446.105 175.033L448.308 171.694ZM431.627 -61.9637C458.015 -107.67 494.803 -141.622 533.134 -159.859C571.474 -178.1 611.189 -180.559 643.695 -163.645L645.541 -167.193C611.627 -184.84 570.549 -182.09 531.416 -163.471C492.275 -144.849 454.911 -110.293 428.163 -63.9637L431.627 -61.9637ZM652.673 -161.767C626.814 -145.974 588.478 -114.007 578.013 -59.3087L581.942 -58.557C592.104 -111.671 629.349 -142.835 654.758 -158.353L652.673 -161.767ZM578.013 -59.3087C573.757 -37.0649 570.528 -17.4508 567.605 0.305028L571.552 0.954811C574.476 -16.8032 577.697 -36.3703 581.942 -58.557L578.013 -59.3087ZM567.605 0.305028C559.498 49.5491 553.75 84.3763 535.056 121.94L538.637 123.722C557.641 85.5362 563.459 50.1149 571.552 0.954811L567.605 0.305028ZM535.056 121.94C517.579 157.056 489.178 173.628 466.056 181.464L467.34 185.253C491.144 177.185 520.558 160.048 538.637 123.722L535.056 121.94ZM669.147 75.1685C644.126 118.505 609.754 151.279 573.58 170.105C537.393 188.938 499.55 193.753 467.411 181.49L465.985 185.227C499.47 198.004 538.525 192.858 575.426 173.653C612.34 154.442 647.247 121.1 672.611 77.1685L669.147 75.1685ZM652.611 -158.393C682.86 -138.363 700.126 -102.789 703.249 -60.6948C706.372 -18.6101 695.329 29.8195 669.147 75.1685L672.611 77.1685C699.15 31.2009 710.427 -18.0215 707.238 -60.9908C704.05 -103.95 686.374 -140.833 654.82 -161.728L652.611 -158.393Z" fill="white" mask="url(#path-1-inside-1)"/>
</g>
<g opacity="0.2">
<mask id="path-3-inside-2" fill="white">
<path fill-rule="evenodd" clip-rule="evenodd" d="M2110.69 -229.454C2078.79 -219.618 2031.27 -196.496 1999.77 -142.754C1980.16 -109.276 1977.76 -65.9472 1974.33 -3.72977C1974.23 -1.90439 1974.13 -0.0627529 1974.02 1.79537C1971.65 44.4952 1935.96 86.6526 1913.28 109.328C1851.34 68.4717 1843.21 -35.6091 1895.97 -126.999C1949.11 -219.034 2044.27 -264.015 2110.69 -229.454ZM2119.79 -224.095C2094.16 -208.44 2056.37 -176.874 2046.05 -122.968C2041.8 -100.753 2038.58 -81.1624 2035.65 -63.4054C2027.55 -14.2033 2021.77 20.9209 2002.92 58.7957C1985.14 94.5171 1956.24 111.371 1932.77 119.323C1998.4 144.364 2086.57 99.4017 2136.95 12.1333C2189.68 -79.1833 2181.59 -183.171 2119.79 -224.095Z"/>
</mask>
<path d="M1999.77 -142.754L1998.05 -143.765L1999.77 -142.754ZM2110.69 -229.454L2111.28 -227.543L2115.94 -228.979L2111.62 -231.228L2110.69 -229.454ZM1974.33 -3.72977L1976.32 -3.6195L1976.32 -3.6195L1974.33 -3.72977ZM1974.02 1.79537L1976.02 1.90612L1974.02 1.79537ZM1913.28 109.328L1912.18 110.998L1913.54 111.896L1914.7 110.743L1913.28 109.328ZM2119.79 -224.095L2120.9 -225.763L2119.83 -226.465L2118.75 -225.802L2119.79 -224.095ZM2046.05 -122.968L2048.02 -122.592L2046.05 -122.968ZM2035.65 -63.4054L2037.63 -63.0805L2035.65 -63.4054ZM2002.92 58.7957L2001.13 57.9046L2002.92 58.7957ZM1932.77 119.323L1932.13 117.429L1926.87 119.212L1932.06 121.192L1932.77 119.323ZM2001.5 -141.743C2032.65 -194.909 2079.67 -217.796 2111.28 -227.543L2110.1 -231.365C2077.91 -221.44 2029.88 -198.083 1998.05 -143.765L2001.5 -141.743ZM1976.32 -3.6195C1979.77 -66.0172 1982.18 -108.775 2001.5 -141.743L1998.05 -143.765C1978.13 -109.777 1975.76 -65.8773 1972.33 -3.84004L1976.32 -3.6195ZM1976.02 1.90612C1976.12 0.0477168 1976.22 -1.79416 1976.32 -3.6195L1972.33 -3.84004C1972.23 -2.01462 1972.13 -0.173223 1972.03 1.68462L1976.02 1.90612ZM1914.7 110.743C1926.09 99.3474 1940.79 83.0272 1952.95 64.154C1965.09 45.3034 1974.81 23.7463 1976.02 1.90612L1972.03 1.68462C1970.87 22.5442 1961.55 43.4157 1949.59 61.9878C1937.64 80.5371 1923.15 96.6334 1911.87 107.914L1914.7 110.743ZM1914.38 107.659C1884.07 87.6621 1866.76 52.0836 1863.61 9.96554C1860.46 -32.1427 1871.5 -80.6135 1897.7 -125.999L1894.24 -127.999C1867.68 -81.9945 1856.4 -32.73 1859.62 10.2638C1862.83 53.2477 1880.56 90.1379 1912.18 110.998L1914.38 107.659ZM1897.7 -125.999C1924.09 -171.705 1960.88 -205.657 1999.21 -223.894C2037.55 -242.135 2077.26 -244.594 2109.77 -227.68L2111.62 -231.228C2077.7 -248.875 2036.62 -246.125 1997.49 -227.506C1958.35 -208.884 1920.99 -174.328 1894.24 -127.999L1897.7 -125.999ZM2118.75 -225.802C2092.89 -210.009 2054.55 -178.042 2044.09 -123.344L2048.02 -122.592C2058.18 -175.706 2095.42 -206.871 2120.83 -222.389L2118.75 -225.802ZM2044.09 -123.344C2039.83 -101.1 2036.6 -81.4862 2033.68 -63.7303L2037.63 -63.0805C2040.55 -80.8386 2043.77 -100.406 2048.02 -122.592L2044.09 -123.344ZM2033.68 -63.7303C2025.57 -14.4862 2019.83 20.341 2001.13 57.9046L2004.71 59.6868C2023.72 21.5009 2029.53 -13.9204 2037.63 -63.0805L2033.68 -63.7303ZM2001.13 57.9046C1983.65 93.0213 1955.25 109.593 1932.13 117.429L1933.42 121.218C1957.22 113.15 1986.63 96.013 2004.71 59.6868L2001.13 57.9046ZM2135.22 11.1333C2110.2 54.4703 2075.83 87.2434 2039.66 106.07C2003.47 124.903 1965.63 129.718 1933.49 117.455L1932.06 121.192C1965.55 133.969 2004.6 128.823 2041.5 109.618C2078.42 90.4069 2113.32 57.0648 2138.69 13.1333L2135.22 11.1333ZM2118.69 -222.428C2148.94 -202.398 2166.2 -166.825 2169.32 -124.73C2172.45 -82.6453 2161.4 -34.2157 2135.22 11.1333L2138.69 13.1333C2165.23 -32.8343 2176.5 -82.0566 2173.31 -125.026C2170.13 -167.985 2152.45 -204.868 2120.9 -225.763L2118.69 -222.428Z" fill="white" mask="url(#path-3-inside-2)"/>
</g>
<g opacity="0.2">
<mask id="path-5-inside-3" fill="white">
<path fill-rule="evenodd" clip-rule="evenodd" d="M-1.27185 -6.51805C-33.1724 3.3179 -80.7007 26.4398 -112.193 80.1821C-131.81 113.66 -134.203 156.989 -137.638 219.206C-137.739 221.032 -137.841 222.873 -137.944 224.731C-140.312 267.431 -176.002 309.589 -198.684 332.264C-260.622 291.408 -268.759 187.327 -215.996 95.9371C-162.859 3.90153 -67.6927 -41.0793 -1.27185 -6.51805ZM7.82532 -1.15949C-17.8088 14.4962 -55.5991 46.0622 -65.9126 99.968C-70.1629 122.183 -73.3882 141.774 -76.3116 159.531C-84.4119 208.733 -90.1946 243.857 -109.044 281.732C-126.822 317.453 -155.729 334.307 -179.192 342.259C-113.568 367.3 -25.3959 322.338 24.9886 235.069C77.7103 143.753 69.628 39.7654 7.82532 -1.15949Z"/>
</mask>
<path d="M-112.193 80.1821L-113.918 79.1709L-112.193 80.1821ZM-1.27185 -6.51805L-0.682569 -4.60684L3.97447 -6.04275L-0.348678 -8.29224L-1.27185 -6.51805ZM-137.638 219.206L-135.642 219.317L-135.642 219.317L-137.638 219.206ZM-137.944 224.731L-135.947 224.842L-137.944 224.731ZM-198.684 332.264L-199.785 333.934L-198.423 334.832L-197.27 333.679L-198.684 332.264ZM7.82532 -1.15949L8.92954 -2.82703L7.86872 -3.52949L6.78288 -2.86633L7.82532 -1.15949ZM-65.9126 99.968L-67.877 99.5922L-65.9126 99.968ZM-76.3116 159.531L-78.285 159.206L-76.3116 159.531ZM-109.044 281.732L-110.835 280.841L-109.044 281.732ZM-179.192 342.259L-179.834 340.365L-185.094 342.148L-179.905 344.128L-179.192 342.259ZM-110.467 81.1932C-79.3127 28.027 -32.2939 5.13992 -0.682569 -4.60684L-1.86114 -8.42926C-34.051 1.49587 -82.0887 24.8525 -113.918 79.1709L-110.467 81.1932ZM-135.642 219.317C-132.196 156.919 -129.786 114.161 -110.467 81.1932L-113.918 79.1709C-133.835 113.159 -136.21 157.059 -139.635 219.096L-135.642 219.317ZM-135.947 224.842C-135.844 222.984 -135.742 221.142 -135.642 219.317L-139.635 219.096C-139.736 220.921 -139.838 222.763 -139.941 224.621L-135.947 224.842ZM-197.27 333.679C-185.871 322.283 -171.173 305.963 -159.015 287.09C-146.872 268.239 -137.158 246.682 -135.947 224.842L-139.941 224.621C-141.098 245.48 -150.414 266.352 -162.378 284.924C-174.327 303.473 -188.814 319.569 -200.098 330.85L-197.27 333.679ZM-197.582 330.595C-227.897 310.598 -245.21 275.02 -248.358 232.902C-251.507 190.793 -240.467 142.322 -214.263 96.9371L-217.728 94.9371C-244.288 140.942 -255.562 190.206 -252.347 233.2C-249.134 276.184 -231.408 313.074 -199.785 333.934L-197.582 330.595ZM-214.263 96.9371C-187.875 51.2308 -151.087 17.2786 -112.756 -0.958268C-74.4166 -19.199 -34.7015 -21.6582 -2.19503 -4.74386L-0.348678 -8.29224C-34.2631 -25.9392 -75.3414 -23.1886 -114.474 -4.5703C-153.616 14.0519 -190.979 48.6079 -217.728 94.9371L-214.263 96.9371ZM6.78288 -2.86633C-19.0765 12.9269 -57.4119 44.8941 -67.877 99.5922L-63.9482 100.344C-53.7863 47.2302 -16.5411 16.0655 8.86775 0.547361L6.78288 -2.86633ZM-67.877 99.5922C-72.1327 121.836 -75.3618 141.45 -78.285 159.206L-74.3382 159.856C-71.4146 142.098 -68.1931 122.531 -63.9482 100.344L-67.877 99.5922ZM-78.285 159.206C-86.3923 208.45 -92.1399 243.277 -110.835 280.841L-107.254 282.623C-88.2492 244.437 -82.4316 209.016 -74.3382 159.856L-78.285 159.206ZM-110.835 280.841C-128.311 315.957 -156.712 332.529 -179.834 340.365L-178.55 344.154C-154.746 336.086 -125.332 318.949 -107.254 282.623L-110.835 280.841ZM23.2565 234.069C-1.76407 277.406 -36.1358 310.179 -72.3103 329.006C-108.497 347.839 -146.341 352.654 -178.479 340.391L-179.905 344.128C-146.42 356.905 -107.365 351.759 -70.4637 332.554C-33.5499 313.343 1.35681 280.001 26.7206 236.069L23.2565 234.069ZM6.72109 0.508056C36.9698 20.5383 54.2354 56.1114 57.3591 98.206C60.4819 140.291 49.4388 188.72 23.2565 234.069L26.7206 236.069C53.2601 190.102 64.5366 140.879 61.3481 97.91C58.1603 54.9507 40.4835 18.0676 8.92954 -2.82703L6.72109 0.508056Z" fill="white" mask="url(#path-5-inside-3)"/>
</g>
<g opacity="0.2">
<mask id="path-7-inside-4" fill="white">
<path fill-rule="evenodd" clip-rule="evenodd" d="M417.026 197.704C395.794 211.586 374.288 231.603 357.397 260.429C337.779 293.907 335.387 337.236 331.951 399.453C331.85 401.278 331.749 403.12 331.646 404.978C328.157 467.881 252.354 529.607 252.354 529.607C252.354 529.607 326.663 530.059 360.546 461.979C379.395 424.104 385.178 388.979 393.278 339.777C396.201 322.02 399.427 302.43 403.677 280.215C410.412 245.011 428.866 219.335 448 201.396C456.4 203.663 464.499 206.987 472.18 211.422C538.726 249.842 548.754 357.056 494.578 450.891C440.403 544.725 342.539 589.648 275.993 551.227C209.447 512.807 199.419 405.593 253.594 311.758C294.099 241.602 359.026 198.787 417.026 197.704Z"/>
</mask>
<path d="M357.397 260.429L359.123 261.44L357.397 260.429ZM417.026 197.704L418.12 199.378L423.938 195.575L416.989 195.704L417.026 197.704ZM331.951 399.453L329.954 399.343L331.951 399.453ZM331.646 404.978L333.643 405.089L331.646 404.978ZM252.354 529.607L251.091 528.057L246.773 531.574L252.342 531.607L252.354 529.607ZM360.546 461.979L358.755 461.087L360.546 461.979ZM393.278 339.777L395.251 340.102L393.278 339.777ZM403.677 280.215L401.713 279.839L403.677 280.215ZM448 201.396L448.521 199.465L447.445 199.174L446.632 199.937L448 201.396ZM359.123 261.44C375.838 232.914 397.112 213.114 418.12 199.378L415.932 196.03C394.475 210.059 372.739 230.291 355.671 259.418L359.123 261.44ZM333.948 399.563C337.394 337.166 339.804 294.408 359.123 261.44L355.671 259.418C335.755 293.406 333.38 337.306 329.954 399.343L333.948 399.563ZM333.643 405.089C333.746 403.23 333.847 401.389 333.948 399.563L329.954 399.343C329.853 401.168 329.752 403.01 329.649 404.867L333.643 405.089ZM252.354 529.607C253.617 531.158 253.618 531.158 253.619 531.157C253.62 531.156 253.621 531.155 253.622 531.154C253.625 531.152 253.629 531.149 253.634 531.145C253.644 531.136 253.659 531.124 253.678 531.109C253.716 531.077 253.773 531.031 253.847 530.97C253.994 530.848 254.211 530.667 254.493 530.43C255.058 529.955 255.883 529.254 256.932 528.341C259.029 526.514 262.024 523.839 265.627 520.433C272.83 513.624 282.472 503.884 292.229 492.161C311.674 468.796 331.861 437.215 333.643 405.089L329.649 404.867C327.942 435.645 308.483 466.378 289.154 489.602C279.524 501.173 269.998 510.796 262.879 517.527C259.321 520.891 256.366 523.529 254.305 525.324C253.274 526.221 252.467 526.908 251.92 527.368C251.646 527.598 251.437 527.772 251.297 527.887C251.227 527.945 251.175 527.988 251.141 528.016C251.123 528.031 251.111 528.041 251.102 528.048C251.098 528.051 251.095 528.053 251.094 528.055C251.093 528.056 251.092 528.056 251.092 528.056C251.091 528.057 251.091 528.057 252.354 529.607ZM358.755 461.087C342.099 494.554 315.525 511.175 293.053 519.446C281.811 523.584 271.61 525.626 264.224 526.633C260.533 527.136 257.55 527.379 255.499 527.497C254.473 527.556 253.68 527.584 253.149 527.597C252.883 527.603 252.683 527.606 252.551 527.607C252.485 527.607 252.437 527.607 252.406 527.608C252.391 527.608 252.379 527.608 252.373 527.608C252.37 527.608 252.367 527.608 252.366 527.608C252.366 527.608 252.366 527.608 252.366 527.607C252.366 527.608 252.367 527.608 252.354 529.607C252.342 531.607 252.343 531.607 252.345 531.607C252.346 531.607 252.347 531.607 252.349 531.607C252.353 531.607 252.357 531.607 252.363 531.608C252.374 531.608 252.39 531.608 252.411 531.608C252.451 531.607 252.51 531.607 252.586 531.607C252.737 531.605 252.959 531.602 253.245 531.595C253.819 531.582 254.656 531.552 255.728 531.491C257.873 531.367 260.96 531.114 264.765 530.596C272.371 529.56 282.864 527.459 294.435 523.2C317.588 514.678 345.109 497.484 362.336 462.87L358.755 461.087ZM391.305 339.452C383.197 388.697 377.45 423.524 358.755 461.087L362.336 462.87C381.34 424.684 387.158 389.262 395.251 340.102L391.305 339.452ZM401.713 279.839C397.457 302.083 394.228 321.697 391.305 339.452L395.251 340.102C398.175 322.344 401.397 302.777 405.641 280.59L401.713 279.839ZM446.632 199.937C427.271 218.088 408.546 244.122 401.713 279.839L405.641 280.59C412.279 245.899 430.461 220.581 449.368 202.855L446.632 199.937ZM447.479 203.327C455.715 205.549 463.652 208.808 471.18 213.154L473.18 209.69C465.345 205.166 457.085 201.776 448.521 199.465L447.479 203.327ZM471.18 213.154C503.743 231.954 522.647 267.68 526.658 310.562C530.669 353.438 519.751 403.29 492.846 449.891L496.31 451.891C523.581 404.657 534.737 353.984 530.641 310.189C526.545 266.401 507.163 229.31 473.18 209.69L471.18 213.154ZM492.846 449.891C465.941 496.491 428.227 530.872 389.09 548.837C349.948 566.805 309.556 568.296 276.993 549.495L274.993 552.96C308.976 572.58 350.789 570.82 390.759 552.472C430.734 534.123 469.04 499.125 496.31 451.891L492.846 449.891ZM276.993 549.495C244.43 530.695 225.525 494.969 221.514 452.087C217.504 409.211 228.421 359.359 255.326 312.758L251.862 310.758C224.592 357.992 213.435 408.665 217.532 452.46C221.627 496.248 241.01 533.339 274.993 552.96L276.993 549.495ZM255.326 312.758C295.593 243.015 359.962 200.77 417.063 199.704L416.989 195.704C358.089 196.804 292.606 240.189 251.862 310.758L255.326 312.758Z" fill="white" mask="url(#path-7-inside-4)"/>
</g>
<g opacity="0.2">
<mask id="path-9-inside-5" fill="white">
<path fill-rule="evenodd" clip-rule="evenodd" d="M797.356 113.711C766.789 125.738 728.188 149.302 701.288 195.208C681.671 228.686 679.278 272.015 675.843 334.232C675.742 336.057 675.64 337.899 675.537 339.757C672.842 388.358 626.978 436.256 606.261 455.525C602.826 454.028 599.458 452.332 596.167 450.432C529.621 412.011 519.593 304.797 573.769 210.963C627.944 117.128 725.808 72.2054 792.354 110.626C794.059 111.61 795.726 112.639 797.356 113.711ZM808.632 122.336C784.597 139.865 756.28 169.459 747.568 214.994C743.318 237.209 740.093 256.799 737.169 274.556C729.069 323.758 723.286 358.883 704.437 396.758C683.356 439.115 646.627 454.944 621.882 460.859C686.023 477.118 767.211 432.44 814.753 350.095C864.152 264.533 860.169 167.847 808.632 122.336Z"/>
</mask>
<path d="M701.288 195.208L699.563 194.197L701.288 195.208ZM797.356 113.711L798.088 115.573L801.676 114.161L798.455 112.041L797.356 113.711ZM675.843 334.232L673.846 334.122L675.843 334.232ZM675.537 339.757L677.534 339.868L675.537 339.757ZM606.261 455.525L605.463 457.358L606.664 457.882L607.624 456.989L606.261 455.525ZM808.632 122.336L809.956 120.836L808.752 119.773L807.454 120.72L808.632 122.336ZM747.568 214.994L749.533 215.369L747.568 214.994ZM737.169 274.556L739.143 274.881L737.169 274.556ZM704.437 396.758L702.646 395.866L704.437 396.758ZM621.882 460.859L621.417 458.914L621.39 462.798L621.882 460.859ZM703.014 196.219C729.627 150.803 767.811 127.485 798.088 115.573L796.623 111.85C765.766 123.991 726.75 147.801 699.563 194.197L703.014 196.219ZM677.839 334.342C681.285 271.945 683.695 229.187 703.014 196.219L699.563 194.197C679.646 228.185 677.271 272.085 673.846 334.122L677.839 334.342ZM677.534 339.868C677.637 338.01 677.739 336.168 677.839 334.342L673.846 334.122C673.745 335.947 673.643 337.789 673.54 339.646L677.534 339.868ZM607.624 456.989C618.037 447.304 634.791 430.406 649.293 409.791C663.771 389.211 676.156 364.716 677.534 339.868L673.54 339.646C672.223 363.399 660.328 387.153 646.022 407.489C631.739 427.791 615.203 444.476 604.899 454.06L607.624 456.989ZM607.06 453.691C603.694 452.224 600.393 450.562 597.167 448.7L595.167 452.164C598.524 454.102 601.959 455.832 605.463 457.358L607.06 453.691ZM597.167 448.7C564.604 429.899 545.7 394.173 541.689 351.291C537.678 308.415 548.596 258.563 575.501 211.963L572.037 209.963C544.766 257.197 533.61 307.869 537.706 351.664C541.802 395.452 561.184 432.543 595.167 452.164L597.167 448.7ZM575.501 211.963C602.406 165.362 640.12 130.981 679.257 113.016C718.4 95.0486 758.792 93.5576 791.354 112.358L793.354 108.894C759.371 89.2735 717.558 91.0335 677.588 109.381C637.613 127.73 599.307 162.728 572.037 209.963L575.501 211.963ZM791.354 112.358C793.025 113.322 794.659 114.331 796.256 115.382L798.455 112.041C796.793 110.947 795.092 109.897 793.354 108.894L791.354 112.358ZM807.454 120.72C783.176 138.426 754.444 168.414 745.604 214.618L749.533 215.369C758.117 170.505 786.019 141.304 809.811 123.951L807.454 120.72ZM745.604 214.618C741.348 236.862 738.119 256.476 735.196 274.231L739.143 274.881C742.066 257.123 745.288 237.556 749.533 215.369L745.604 214.618ZM735.196 274.231C727.089 323.476 721.341 358.303 702.646 395.866L706.227 397.649C725.232 359.463 731.049 324.041 739.143 274.881L735.196 274.231ZM702.646 395.866C681.927 437.498 645.84 453.076 621.417 458.914L622.347 462.804C647.415 456.812 684.786 440.732 706.227 397.649L702.646 395.866ZM813.021 349.095C765.717 431.028 685.299 474.871 622.373 458.92L621.39 462.798C686.747 479.365 768.704 433.853 816.485 351.095L813.021 349.095ZM807.308 123.835C832.557 146.131 846.294 181.094 847.545 221.258C848.795 261.409 837.552 306.606 813.021 349.095L816.485 351.095C841.353 308.022 852.818 262.095 851.543 221.134C850.268 180.187 836.245 144.052 809.956 120.836L807.308 123.835Z" fill="white" mask="url(#path-9-inside-5)"/>
</g>
<g opacity="0.2">
<mask id="path-11-inside-6" fill="white">
<path fill-rule="evenodd" clip-rule="evenodd" d="M1951.26 160.042C1920.69 172.069 1882.09 195.633 1855.19 241.539C1835.57 275.017 1833.18 318.346 1829.74 380.563C1829.64 382.388 1829.54 384.23 1829.44 386.088C1826.74 434.689 1780.88 482.587 1760.16 501.856C1756.73 500.359 1753.36 498.663 1750.07 496.763C1683.52 458.342 1673.5 351.128 1727.67 257.294C1781.85 163.459 1879.71 118.536 1946.26 156.957C1947.96 157.941 1949.63 158.97 1951.26 160.042ZM1962.53 168.666C1938.5 186.196 1910.18 215.79 1901.47 261.325C1897.22 283.54 1894 303.13 1891.07 320.887C1882.97 370.089 1877.19 405.214 1858.34 443.088C1837.26 485.446 1800.53 501.275 1775.78 507.19C1839.93 523.449 1921.11 478.772 1968.66 396.426C2018.05 310.864 2014.07 214.178 1962.53 168.666Z"/>
</mask>
<path d="M1855.19 241.539L1853.47 240.528L1855.19 241.539ZM1951.26 160.042L1951.99 161.904L1955.58 160.492L1952.36 158.372L1951.26 160.042ZM1829.74 380.563L1827.75 380.453L1829.74 380.563ZM1829.44 386.088L1831.44 386.199L1829.44 386.088ZM1760.16 501.856L1759.36 503.689L1760.57 504.213L1761.53 503.32L1760.16 501.856ZM1962.53 168.666L1963.86 167.167L1962.65 166.104L1961.36 167.051L1962.53 168.666ZM1901.47 261.325L1903.44 261.7L1901.47 261.325ZM1891.07 320.887L1893.05 321.212L1891.07 320.887ZM1858.34 443.088L1856.55 442.197L1858.34 443.088ZM1775.78 507.19L1775.32 505.245L1775.29 509.129L1775.78 507.19ZM1856.92 242.55C1883.53 197.134 1921.71 173.815 1951.99 161.904L1950.53 158.181C1919.67 170.322 1880.65 194.132 1853.47 240.528L1856.92 242.55ZM1831.74 380.673C1835.19 318.276 1837.6 275.518 1856.92 242.55L1853.47 240.528C1833.55 274.516 1831.17 318.415 1827.75 380.453L1831.74 380.673ZM1831.44 386.199C1831.54 384.34 1831.64 382.499 1831.74 380.673L1827.75 380.453C1827.65 382.278 1827.55 384.12 1827.44 385.977L1831.44 386.199ZM1761.53 503.32C1771.94 493.635 1788.69 476.737 1803.2 456.122C1817.67 435.542 1830.06 411.047 1831.44 386.199L1827.44 385.977C1826.13 409.73 1814.23 433.484 1799.92 453.82C1785.64 474.122 1769.11 490.807 1758.8 500.391L1761.53 503.32ZM1760.96 500.022C1757.6 498.555 1754.3 496.893 1751.07 495.031L1749.07 498.495C1752.43 500.433 1755.86 502.163 1759.36 503.689L1760.96 500.022ZM1751.07 495.031C1718.51 476.23 1699.6 440.505 1695.59 397.622C1691.58 354.746 1702.5 304.894 1729.4 258.294L1725.94 256.294C1698.67 303.528 1687.51 354.201 1691.61 397.995C1695.7 441.783 1715.09 478.875 1749.07 498.495L1751.07 495.031ZM1729.4 258.294C1756.31 211.693 1794.02 177.312 1833.16 159.347C1872.3 141.38 1912.69 139.889 1945.26 158.689L1947.26 155.225C1913.27 135.605 1871.46 137.365 1831.49 155.712C1791.52 174.061 1753.21 209.06 1725.94 256.294L1729.4 258.294ZM1945.26 158.689C1946.93 159.653 1948.56 160.662 1950.16 161.713L1952.36 158.372C1950.7 157.278 1948.99 156.228 1947.26 155.225L1945.26 158.689ZM1961.36 167.051C1937.08 184.757 1908.35 214.745 1899.51 260.949L1903.44 261.7C1912.02 216.835 1939.92 187.635 1963.71 170.282L1961.36 167.051ZM1899.51 260.949C1895.25 283.193 1892.02 302.807 1889.1 320.563L1893.05 321.212C1895.97 303.454 1899.19 283.887 1903.44 261.7L1899.51 260.949ZM1889.1 320.563C1880.99 369.807 1875.24 404.634 1856.55 442.197L1860.13 443.98C1879.13 405.794 1884.95 370.372 1893.05 321.212L1889.1 320.563ZM1856.55 442.197C1835.83 483.829 1799.74 499.407 1775.32 505.245L1776.25 509.135C1801.32 503.143 1838.69 487.063 1860.13 443.98L1856.55 442.197ZM1966.92 395.426C1919.62 477.359 1839.2 521.202 1776.28 505.251L1775.29 509.129C1840.65 525.696 1922.61 480.184 1970.39 397.426L1966.92 395.426ZM1961.21 170.166C1986.46 192.462 2000.2 227.425 2001.45 267.589C2002.7 307.74 1991.45 352.937 1966.92 395.426L1970.39 397.426C1995.26 354.353 2006.72 308.426 2005.45 267.465C2004.17 226.518 1990.15 190.383 1963.86 167.167L1961.21 170.166Z" fill="white" mask="url(#path-11-inside-6)"/>
</g>
<g opacity="0.2">
<mask id="path-13-inside-7" fill="white">
<path fill-rule="evenodd" clip-rule="evenodd" d="M967.831 -250.271C938.311 -240.338 903.469 -221.094 875.58 -183.886C852.308 -152.836 845.038 -110.055 834.599 -48.6237C834.293 -46.8214 833.984 -45.003 833.672 -43.1684C825.429 5.26613 773.569 48.0234 751.135 64.5016C716.748 14.3031 719.181 -68.8895 762.316 -143.601C813.043 -231.462 902.073 -276.44 967.831 -250.271ZM985.399 -241.181C960.619 -226.012 932.238 -200.406 919.33 -159C912.598 -137.407 907.182 -118.306 902.272 -100.993C888.668 -53.0201 878.956 -18.7734 855.95 16.7307C826.539 62.12 780.725 70.7566 756.717 71.9595C764.526 81.519 773.87 89.6072 784.715 95.8684C851.26 134.289 949.125 89.3664 1003.3 -4.46839C1056.23 -96.1471 1047.87 -200.597 985.399 -241.181Z"/>
</mask>
<path d="M875.58 -183.886L873.98 -185.085L875.58 -183.886ZM967.831 -250.271L968.469 -248.375L973.635 -250.113L968.571 -252.129L967.831 -250.271ZM834.599 -48.6237L832.627 -48.9588L832.627 -48.9588L834.599 -48.6237ZM833.672 -43.1684L831.7 -43.5039L833.672 -43.1684ZM751.135 64.5016L749.485 65.6319L750.654 67.3371L752.319 66.1135L751.135 64.5016ZM985.399 -241.181L986.489 -242.858L985.431 -243.545L984.355 -242.887L985.399 -241.181ZM919.33 -159L921.239 -158.405L919.33 -159ZM902.272 -100.993L900.348 -101.539L902.272 -100.993ZM855.95 16.7307L854.272 15.6431L855.95 16.7307ZM756.717 71.9595L756.617 69.962L752.664 70.16L755.168 73.2248L756.717 71.9595ZM877.181 -182.686C904.774 -219.5 939.24 -238.54 968.469 -248.375L967.193 -252.166C937.382 -242.135 902.164 -222.688 873.98 -185.085L877.181 -182.686ZM836.571 -48.2886C847.04 -109.898 854.263 -152.11 877.181 -182.686L873.98 -185.085C850.353 -153.563 843.036 -110.212 832.627 -48.9588L836.571 -48.2886ZM835.643 -42.8328C835.955 -44.6677 836.264 -46.4864 836.571 -48.2887L832.627 -48.9588C832.321 -47.1564 832.012 -45.3382 831.7 -43.5039L835.643 -42.8328ZM752.319 66.1135C763.596 57.8305 782.29 42.9288 799.217 23.9827C816.115 5.06914 831.429 -18.0702 835.643 -42.8328L831.7 -43.5039C827.671 -19.832 812.935 2.62451 796.234 21.3177C779.562 39.9784 761.109 54.6945 749.951 62.8897L752.319 66.1135ZM752.785 63.3713C718.974 14.0142 721.155 -68.3082 764.048 -142.601L760.584 -144.601C717.208 -69.4708 714.521 14.5919 749.485 65.6319L752.785 63.3713ZM764.048 -142.601C789.239 -186.232 823.908 -219.155 860.352 -237.919C896.808 -256.689 934.891 -261.227 967.092 -248.412L968.571 -252.129C935.013 -265.483 895.701 -260.618 858.521 -241.475C821.329 -222.327 786.12 -188.83 760.584 -144.601L764.048 -142.601ZM984.355 -242.887C959.312 -227.557 930.518 -201.608 917.421 -159.596L921.239 -158.405C933.958 -199.203 961.926 -224.467 986.443 -239.475L984.355 -242.887ZM917.421 -159.596C910.68 -137.975 905.257 -118.851 900.348 -101.539L904.196 -100.447C909.106 -117.762 914.516 -136.84 921.239 -158.405L917.421 -159.596ZM900.348 -101.539C886.732 -53.5248 877.089 -19.5694 854.272 15.6431L857.629 17.8183C880.823 -17.9775 890.603 -52.5154 904.196 -100.447L900.348 -101.539ZM854.272 15.6431C825.368 60.2505 780.34 68.7733 756.617 69.962L756.817 73.9569C781.11 72.7398 827.711 63.9896 857.629 17.8183L854.272 15.6431ZM785.715 94.1364C775.088 88.0013 765.928 80.0742 758.265 70.6941L755.168 73.2248C763.124 82.9639 772.651 91.2132 783.715 97.6005L785.715 94.1364ZM1001.57 -5.46839C974.663 41.1324 936.949 75.5129 897.812 93.478C858.669 111.446 818.277 112.937 785.715 94.1364L783.715 97.6005C817.698 117.221 859.511 115.461 899.481 97.1133C939.456 78.7637 977.762 43.7657 1005.03 -3.46839L1001.57 -5.46839ZM984.31 -239.504C1014.89 -219.641 1032.38 -184.042 1035.63 -141.832C1038.88 -99.6312 1027.85 -50.9974 1001.57 -5.46839L1005.03 -3.46839C1031.68 -49.6181 1042.94 -99.0488 1039.62 -142.139C1036.31 -185.219 1018.39 -222.137 986.489 -242.858L984.31 -239.504Z" fill="white" mask="url(#path-13-inside-7)"/>
</g>
<g opacity="0.2">
<mask id="path-15-inside-8" fill="white">
<path fill-rule="evenodd" clip-rule="evenodd" d="M295.29 -94.7367C265.392 -79.7277 224.773 -50.3022 202.344 4.41701C187.628 40.3208 191.35 83.5553 196.695 145.638C196.852 147.459 197.01 149.297 197.17 151.151C200.815 193.615 171.618 240.199 152.347 265.893C145.492 263.715 138.857 260.808 132.507 257.142C65.9608 218.721 55.9326 111.507 110.108 17.6725C155.77 -61.4156 232.467 -105.757 295.29 -94.7367ZM308.123 -91.6452C285.058 -72.196 253.519 -36.061 250.946 17.5003C249.861 40.0925 249.422 59.9419 249.024 77.9335C247.921 127.786 247.134 163.374 233.796 203.523C222.158 238.555 198.817 258.938 177.879 270.639C238.228 274.538 308.293 230.934 351.092 156.805C405.268 62.9699 395.24 -44.244 328.694 -82.6644C322.119 -86.4605 315.238 -89.4431 308.123 -91.6452Z"/>
</mask>
<path d="M202.344 4.41701L204.195 5.17553L202.344 4.41701ZM295.29 -94.7367L296.187 -92.9493L301.591 -95.662L295.636 -96.7067L295.29 -94.7367ZM196.695 145.638L198.688 145.466L198.688 145.466L196.695 145.638ZM197.17 151.151L199.162 150.98L197.17 151.151ZM152.347 265.893L151.741 267.799L153.095 268.229L153.947 267.093L152.347 265.893ZM308.123 -91.6452L308.715 -93.5557L307.67 -93.8791L306.834 -93.1742L308.123 -91.6452ZM250.946 17.5003L248.949 17.4044L250.946 17.5003ZM249.024 77.9335L247.024 77.8893L249.024 77.9335ZM233.796 203.523L235.694 204.153L233.796 203.523ZM177.879 270.639L176.903 268.893L170.989 272.198L177.75 272.635L177.879 270.639ZM204.195 5.17553C226.383 -48.9578 266.565 -78.0783 296.187 -92.9493L294.393 -96.5242C264.22 -81.377 223.162 -51.6465 200.494 3.65848L204.195 5.17553ZM198.688 145.466C193.327 83.204 189.703 40.5322 204.195 5.17553L200.494 3.65848C185.553 40.1093 189.373 83.9067 194.703 145.809L198.688 145.466ZM199.162 150.98C199.003 149.126 198.845 147.288 198.688 145.466L194.703 145.809C194.86 147.631 195.018 149.468 195.177 151.322L199.162 150.98ZM153.947 267.093C163.631 254.181 175.837 235.986 185.17 215.645C194.492 195.328 201.027 172.7 199.162 150.98L195.177 151.322C196.958 172.066 190.718 193.962 181.534 213.977C172.362 233.967 160.334 251.911 150.747 264.693L153.947 267.093ZM152.952 263.987C146.233 261.852 139.73 259.002 133.507 255.409L131.507 258.874C137.983 262.613 144.751 265.578 151.741 267.799L152.952 263.987ZM133.507 255.409C100.944 236.609 82.0391 200.883 78.0282 158.001C74.0178 115.125 84.9353 65.2732 111.84 18.6725L108.376 16.6725C81.1055 63.9065 69.9493 114.579 74.0456 158.374C78.1413 202.162 97.5236 239.253 131.507 258.874L133.507 255.409ZM111.84 18.6725C157.261 -59.9978 233.253 -103.589 294.945 -92.7668L295.636 -96.7067C231.681 -107.925 154.279 -62.8334 108.376 16.6725L111.84 18.6725ZM306.834 -93.1742C283.562 -73.5505 251.559 -36.9445 248.949 17.4044L252.944 17.5963C255.479 -35.1776 286.554 -70.8415 309.412 -90.1162L306.834 -93.1742ZM248.949 17.4044C247.862 40.0255 247.423 59.8988 247.024 77.8893L251.023 77.9777C251.422 59.985 251.86 40.1594 252.944 17.5963L248.949 17.4044ZM247.024 77.8893C245.921 127.784 245.126 163.073 231.898 202.892L235.694 204.153C249.141 163.675 249.921 127.787 251.023 77.9777L247.024 77.8893ZM231.898 202.892C220.455 237.336 197.525 257.369 176.903 268.893L178.854 272.385C200.11 260.507 223.86 239.775 235.694 204.153L231.898 202.892ZM349.36 155.805C306.803 229.516 237.356 272.477 178.008 268.643L177.75 272.635C239.101 276.598 309.784 232.353 352.824 157.805L349.36 155.805ZM327.694 -80.9323C360.257 -62.1321 379.161 -26.4062 383.172 16.476C387.183 59.3525 376.265 109.204 349.36 155.805L352.824 157.805C380.095 110.571 391.251 59.8977 387.155 16.1035C383.059 -27.6851 363.677 -64.7763 329.694 -84.3964L327.694 -80.9323ZM307.532 -89.7346C314.506 -87.5759 321.25 -84.6527 327.694 -80.9323L329.694 -84.3964C322.987 -88.2684 315.969 -91.3103 308.715 -93.5557L307.532 -89.7346Z" fill="white" mask="url(#path-15-inside-8)"/>
</g>
<g opacity="0.2">
<mask id="path-17-inside-9" fill="white">
<path fill-rule="evenodd" clip-rule="evenodd" d="M1446.33 -34.9775C1414.43 -25.1416 1366.9 -2.01972 1335.41 51.7226C1315.79 85.2009 1313.4 128.529 1309.96 190.747C1309.86 192.572 1309.76 194.414 1309.66 196.272C1307.29 238.972 1271.6 281.129 1248.92 303.805C1186.98 262.948 1178.84 158.867 1231.61 67.4777C1284.74 -24.5579 1379.91 -69.5388 1446.33 -34.9775ZM1455.43 -29.619C1429.79 -13.9633 1392 17.6027 1381.69 71.5085C1377.44 93.7237 1374.21 113.314 1371.29 131.071C1363.19 180.273 1357.41 215.398 1338.56 253.272C1320.78 288.994 1291.87 305.848 1268.41 313.8C1334.03 338.84 1422.2 293.878 1472.59 206.61C1525.31 115.293 1517.23 11.3059 1455.43 -29.619Z"/>
</mask>
<path d="M1335.41 51.7226L1333.68 50.7114L1335.41 51.7226ZM1446.33 -34.9775L1446.92 -33.0663L1451.58 -34.5022L1447.25 -36.7517L1446.33 -34.9775ZM1309.96 190.747L1311.96 190.857L1311.96 190.857L1309.96 190.747ZM1309.66 196.272L1311.65 196.383L1309.66 196.272ZM1248.92 303.805L1247.82 305.474L1249.18 306.372L1250.33 305.219L1248.92 303.805ZM1455.43 -29.619L1456.53 -31.2865L1455.47 -31.989L1454.38 -31.3258L1455.43 -29.619ZM1381.69 71.5085L1383.65 71.8843L1381.69 71.5085ZM1371.29 131.071L1369.32 130.746L1371.29 131.071ZM1338.56 253.272L1336.77 252.381L1338.56 253.272ZM1268.41 313.8L1267.77 311.906L1262.51 313.688L1267.7 315.669L1268.41 313.8ZM1337.13 52.7337C1368.29 -0.432479 1415.31 -23.3196 1446.92 -33.0663L1445.74 -36.8888C1413.55 -26.9636 1365.51 -3.60696 1333.68 50.7114L1337.13 52.7337ZM1311.96 190.857C1315.4 128.459 1317.81 85.7019 1337.13 52.7337L1333.68 50.7114C1313.77 84.6999 1311.39 128.599 1307.97 190.637L1311.96 190.857ZM1311.65 196.383C1311.76 194.524 1311.86 192.682 1311.96 190.857L1307.97 190.637C1307.86 192.462 1307.76 194.303 1307.66 196.161L1311.65 196.383ZM1250.33 305.219C1261.73 293.824 1276.43 277.504 1288.59 258.63C1300.73 239.78 1310.44 218.223 1311.65 196.383L1307.66 196.161C1306.5 217.021 1297.19 237.892 1285.22 256.464C1273.27 275.014 1258.79 291.11 1247.5 302.39L1250.33 305.219ZM1250.02 302.135C1219.7 282.139 1202.39 246.56 1199.24 204.442C1196.09 162.334 1207.13 113.863 1233.34 68.4777L1229.87 66.4777C1203.31 112.482 1192.04 161.746 1195.25 204.74C1198.47 247.724 1216.19 284.614 1247.82 305.474L1250.02 302.135ZM1233.34 68.4777C1259.73 22.7713 1296.51 -11.1809 1334.84 -29.4177C1373.18 -47.6584 1412.9 -50.1177 1445.41 -33.2034L1447.25 -36.7517C1413.34 -54.3986 1372.26 -51.6481 1333.13 -33.0298C1293.98 -14.4076 1256.62 20.1484 1229.87 66.4777L1233.34 68.4777ZM1454.38 -31.3258C1428.52 -15.5326 1390.19 16.4346 1379.72 71.1327L1383.65 71.8843C1393.81 18.7707 1431.06 -12.394 1456.47 -27.9121L1454.38 -31.3258ZM1379.72 71.1327C1375.47 93.3764 1372.24 112.991 1369.32 130.746L1373.26 131.396C1376.19 113.638 1379.41 94.0711 1383.65 71.8843L1379.72 71.1327ZM1369.32 130.746C1361.21 179.99 1355.46 214.818 1336.77 252.381L1340.35 254.163C1359.35 215.978 1365.17 180.556 1373.26 131.396L1369.32 130.746ZM1336.77 252.381C1319.29 287.498 1290.89 304.069 1267.77 311.906L1269.05 315.694C1292.85 307.627 1322.27 290.49 1340.35 254.163L1336.77 252.381ZM1470.86 205.61C1445.84 248.947 1411.46 281.72 1375.29 300.547C1339.1 319.38 1301.26 324.195 1269.12 311.931L1267.7 315.669C1301.18 328.446 1340.24 323.3 1377.14 304.095C1414.05 284.883 1448.96 251.541 1474.32 207.61L1470.86 205.61ZM1454.32 -27.9514C1484.57 -7.92118 1501.84 27.6519 1504.96 69.7465C1508.08 111.831 1497.04 160.261 1470.86 205.61L1474.32 207.61C1500.86 161.642 1512.14 112.42 1508.95 69.4505C1505.76 26.4912 1488.08 -10.3919 1456.53 -31.2865L1454.32 -27.9514Z" fill="white" mask="url(#path-17-inside-9)"/>
</g>
<g opacity="0.2">
<mask id="path-19-inside-10" fill="white">
<path fill-rule="evenodd" clip-rule="evenodd" d="M1218.74 328.145C1197.5 342.028 1176 362.044 1159.11 390.87C1139.49 424.348 1137.1 467.677 1133.66 529.894C1133.56 531.72 1133.46 533.561 1133.36 535.419C1129.87 598.323 1054.07 660.049 1054.07 660.049C1054.07 660.049 1128.37 660.501 1162.26 592.42C1181.11 554.545 1186.89 519.421 1194.99 470.219C1197.91 452.462 1201.14 432.871 1205.39 410.656C1212.12 375.452 1230.58 349.776 1249.71 331.837C1258.11 334.104 1266.21 337.428 1273.89 341.863C1340.44 380.283 1350.46 487.497 1296.29 581.332C1242.11 675.167 1144.25 720.089 1077.7 681.669C1011.16 643.249 1001.13 536.035 1055.3 442.2C1095.81 372.043 1160.74 329.228 1218.74 328.145Z"/>
</mask>
<path d="M1159.11 390.87L1160.83 391.881L1159.11 390.87ZM1218.74 328.145L1219.83 329.819L1225.65 326.016L1218.7 326.146L1218.74 328.145ZM1133.66 529.894L1135.66 530.005L1133.66 529.894ZM1133.36 535.419L1135.35 535.53L1133.36 535.419ZM1054.07 660.049L1052.8 658.498L1048.48 662.015L1054.05 662.049L1054.07 660.049ZM1162.26 592.42L1160.47 591.529L1162.26 592.42ZM1194.99 470.219L1193.02 469.894L1194.99 470.219ZM1205.39 410.656L1207.35 411.032L1205.39 410.656ZM1249.71 331.837L1250.23 329.906L1249.16 329.616L1248.34 330.378L1249.71 331.837ZM1160.83 391.881C1177.55 363.356 1198.82 343.555 1219.83 329.819L1217.64 326.472C1196.19 340.5 1174.45 360.733 1157.38 389.859L1160.83 391.881ZM1135.66 530.005C1139.1 467.607 1141.51 424.849 1160.83 391.881L1157.38 389.859C1137.47 423.847 1135.09 467.747 1131.67 529.784L1135.66 530.005ZM1135.35 535.53C1135.46 533.672 1135.56 531.83 1135.66 530.005L1131.67 529.784C1131.56 531.609 1131.46 533.451 1131.36 535.309L1135.35 535.53ZM1054.07 660.049C1055.33 661.6 1055.33 661.599 1055.33 661.598C1055.33 661.598 1055.33 661.597 1055.33 661.596C1055.34 661.593 1055.34 661.59 1055.34 661.586C1055.35 661.578 1055.37 661.566 1055.39 661.55C1055.43 661.518 1055.48 661.472 1055.56 661.411C1055.71 661.289 1055.92 661.108 1056.2 660.871C1056.77 660.397 1057.59 659.695 1058.64 658.782C1060.74 656.955 1063.74 654.28 1067.34 650.875C1074.54 644.065 1084.18 634.326 1093.94 622.602C1113.39 599.237 1133.57 567.656 1135.35 535.53L1131.36 535.309C1129.65 566.086 1110.19 596.819 1090.87 620.043C1081.24 631.615 1071.71 641.238 1064.59 647.968C1061.03 651.332 1058.08 653.97 1056.02 655.765C1054.99 656.663 1054.18 657.349 1053.63 657.809C1053.36 658.04 1053.15 658.213 1053.01 658.329C1052.94 658.386 1052.89 658.429 1052.85 658.458C1052.83 658.472 1052.82 658.482 1052.81 658.489C1052.81 658.492 1052.81 658.495 1052.8 658.496C1052.8 658.497 1052.8 658.497 1052.8 658.498C1052.8 658.498 1052.8 658.498 1054.07 660.049ZM1160.47 591.529C1143.81 624.995 1117.24 641.616 1094.76 649.888C1083.52 654.026 1073.32 656.068 1065.94 657.074C1062.24 657.577 1059.26 657.821 1057.21 657.939C1056.18 657.998 1055.39 658.025 1054.86 658.038C1054.59 658.044 1054.39 658.047 1054.26 658.048C1054.2 658.049 1054.15 658.049 1054.12 658.049C1054.1 658.049 1054.09 658.049 1054.08 658.049C1054.08 658.049 1054.08 658.049 1054.08 658.049C1054.08 658.049 1054.08 658.049 1054.08 658.049C1054.08 658.049 1054.08 658.049 1054.07 660.049C1054.05 662.049 1054.05 662.049 1054.06 662.049C1054.06 662.049 1054.06 662.049 1054.06 662.049C1054.06 662.049 1054.07 662.049 1054.07 662.049C1054.09 662.049 1054.1 662.049 1054.12 662.049C1054.16 662.049 1054.22 662.049 1054.3 662.048C1054.45 662.047 1054.67 662.044 1054.96 662.037C1055.53 662.023 1056.37 661.994 1057.44 661.932C1059.58 661.809 1062.67 661.556 1066.48 661.037C1074.08 660.001 1084.58 657.901 1096.15 653.642C1119.3 645.119 1146.82 627.925 1164.05 593.311L1160.47 591.529ZM1193.02 469.894C1184.91 519.138 1179.16 553.965 1160.47 591.529L1164.05 593.311C1183.05 555.125 1188.87 519.704 1196.96 470.544L1193.02 469.894ZM1203.42 410.28C1199.17 432.524 1195.94 452.138 1193.02 469.894L1196.96 470.544C1199.89 452.786 1203.11 433.219 1207.35 411.032L1203.42 410.28ZM1248.34 330.378C1228.98 348.53 1210.26 374.564 1203.42 410.28L1207.35 411.032C1213.99 376.341 1232.17 351.023 1251.08 333.296L1248.34 330.378ZM1249.19 333.768C1257.43 335.991 1265.36 339.249 1272.89 343.595L1274.89 340.131C1267.06 335.608 1258.8 332.217 1250.23 329.906L1249.19 333.768ZM1272.89 343.595C1305.45 362.395 1324.36 398.121 1328.37 441.003C1332.38 483.88 1321.46 533.731 1294.56 580.332L1298.02 582.332C1325.29 535.098 1336.45 484.425 1332.35 440.631C1328.26 396.842 1308.87 359.751 1274.89 340.131L1272.89 343.595ZM1294.56 580.332C1267.65 626.933 1229.94 661.313 1190.8 679.278C1151.66 697.246 1111.27 698.737 1078.7 679.937L1076.7 683.401C1110.69 703.021 1152.5 701.261 1192.47 682.914C1232.44 664.564 1270.75 629.566 1298.02 582.332L1294.56 580.332ZM1078.7 679.937C1046.14 661.137 1027.24 625.411 1023.22 582.529C1019.21 539.652 1030.13 489.801 1057.04 443.2L1053.57 441.2C1026.3 488.434 1015.15 539.107 1019.24 582.901C1023.34 626.69 1042.72 663.781 1076.7 683.401L1078.7 679.937ZM1057.04 443.2C1097.3 373.456 1161.67 331.211 1218.77 330.145L1218.7 326.146C1159.8 327.246 1094.32 370.63 1053.57 441.2L1057.04 443.2Z" fill="white" mask="url(#path-19-inside-10)"/>
</g>
<g opacity="0.2">
<mask id="path-21-inside-11" fill="white">
<path fill-rule="evenodd" clip-rule="evenodd" d="M1599.07 244.153C1568.5 256.179 1529.9 279.743 1503 325.649C1483.38 359.128 1480.99 402.456 1477.55 464.673C1477.45 466.499 1477.35 468.34 1477.25 470.199C1474.55 518.799 1428.69 566.697 1407.97 585.966C1404.54 584.469 1401.17 582.773 1397.88 580.873C1331.33 542.453 1321.3 435.239 1375.48 341.404C1429.65 247.569 1527.52 202.647 1594.06 241.067C1595.77 242.051 1597.44 243.08 1599.07 244.153ZM1610.34 252.777C1586.31 270.306 1557.99 299.901 1549.28 345.435C1545.03 367.65 1541.8 387.241 1538.88 404.998C1530.78 454.2 1525 489.324 1506.15 527.199C1485.07 569.556 1448.34 585.386 1423.59 591.3C1487.73 607.559 1568.92 562.882 1616.46 480.536C1665.86 394.974 1661.88 298.288 1610.34 252.777Z"/>
</mask>
<path d="M1503 325.649L1501.27 324.638L1503 325.649ZM1599.07 244.153L1599.8 246.014L1603.39 244.602L1600.17 242.482L1599.07 244.153ZM1477.55 464.673L1479.55 464.784L1479.55 464.784L1477.55 464.673ZM1477.25 470.199L1475.25 470.088L1477.25 470.199ZM1407.97 585.966L1407.17 587.799L1408.37 588.323L1409.33 587.43L1407.97 585.966ZM1610.34 252.777L1611.67 251.278L1610.46 250.214L1609.16 251.161L1610.34 252.777ZM1549.28 345.435L1547.31 345.059L1549.28 345.435ZM1538.88 404.998L1540.85 405.323L1538.88 404.998ZM1506.15 527.199L1504.36 526.308L1506.15 527.199ZM1423.59 591.3L1423.13 589.355L1423.1 593.239L1423.59 591.3ZM1504.72 326.66C1531.34 281.244 1569.52 257.926 1599.8 246.014L1598.33 242.292C1567.48 254.432 1528.46 278.242 1501.27 324.638L1504.72 326.66ZM1479.55 464.784C1483 402.386 1485.41 359.629 1504.72 326.66L1501.27 324.638C1481.36 358.627 1478.98 402.526 1475.56 464.563L1479.55 464.784ZM1479.24 470.309C1479.35 468.451 1479.45 466.609 1479.55 464.784L1475.56 464.563C1475.45 466.389 1475.35 468.23 1475.25 470.088L1479.24 470.309ZM1409.33 587.43C1419.75 577.745 1436.5 560.847 1451 540.232C1465.48 519.652 1477.87 495.158 1479.24 470.309L1475.25 470.088C1473.93 493.84 1462.04 517.595 1447.73 537.931C1433.45 558.232 1416.91 574.918 1406.61 584.501L1409.33 587.43ZM1408.77 584.132C1405.4 582.666 1402.1 581.003 1398.88 579.141L1396.88 582.605C1400.23 584.543 1403.67 586.273 1407.17 587.799L1408.77 584.132ZM1398.88 579.141C1366.31 560.341 1347.41 524.615 1343.4 481.733C1339.39 438.856 1350.31 389.005 1377.21 342.404L1373.75 340.404C1346.48 387.638 1335.32 438.311 1339.42 482.105C1343.51 525.894 1362.89 562.985 1396.88 582.605L1398.88 579.141ZM1377.21 342.404C1404.12 295.803 1441.83 261.423 1480.97 243.457C1520.11 225.49 1560.5 223.999 1593.06 242.799L1595.06 239.335C1561.08 219.715 1519.27 221.475 1479.3 239.822C1439.32 258.172 1401.02 293.17 1373.75 340.404L1377.21 342.404ZM1593.06 242.799C1594.74 243.764 1596.37 244.772 1597.97 245.823L1600.17 242.482C1598.5 241.388 1596.8 240.338 1595.06 239.335L1593.06 242.799ZM1609.16 251.161C1584.89 268.868 1556.15 298.856 1547.31 345.059L1551.24 345.811C1559.83 300.946 1587.73 271.745 1611.52 254.393L1609.16 251.161ZM1547.31 345.059C1543.06 367.303 1539.83 386.917 1536.91 404.673L1540.85 405.323C1543.78 387.565 1547 367.998 1551.24 345.811L1547.31 345.059ZM1536.91 404.673C1528.8 453.917 1523.05 488.744 1504.36 526.308L1507.94 528.09C1526.94 489.904 1532.76 454.483 1540.85 405.323L1536.91 404.673ZM1504.36 526.308C1483.64 567.939 1447.55 583.518 1423.13 589.355L1424.06 593.246C1449.13 587.254 1486.5 571.173 1507.94 528.09L1504.36 526.308ZM1614.73 479.536C1567.43 561.469 1487.01 605.313 1424.08 589.362L1423.1 593.239C1488.46 609.806 1570.41 564.295 1618.2 481.536L1614.73 479.536ZM1609.02 254.276C1634.27 276.572 1648 311.535 1649.26 351.7C1650.51 391.85 1639.26 437.047 1614.73 479.536L1618.2 481.536C1643.06 438.463 1654.53 392.536 1653.25 351.575C1651.98 310.629 1637.96 274.493 1611.67 251.278L1609.02 254.276Z" fill="white" mask="url(#path-21-inside-11)"/>
</g>
<g opacity="0.2">
<mask id="path-23-inside-12" fill="white">
<path fill-rule="evenodd" clip-rule="evenodd" d="M1769.54 -119.829C1740.02 -109.897 1705.18 -90.6525 1677.29 -53.4442C1654.02 -22.3951 1646.75 20.3861 1636.31 81.8176C1636 83.62 1635.69 85.4384 1635.38 87.273C1627.14 135.708 1575.28 178.465 1552.85 194.943C1518.46 144.744 1520.89 61.5519 1564.03 -13.1592C1614.75 -101.021 1703.78 -145.999 1769.54 -119.829ZM1787.11 -110.74C1762.33 -95.5708 1733.95 -69.9642 1721.04 -28.5591C1714.31 -6.96587 1708.89 12.1352 1703.98 29.4485C1690.38 77.4213 1680.67 111.668 1657.66 147.172C1628.25 192.561 1582.44 201.198 1558.43 202.401C1566.24 211.96 1575.58 220.049 1586.43 226.31C1652.97 264.73 1750.84 219.808 1805.01 125.973C1857.94 34.2943 1849.59 -70.1559 1787.11 -110.74Z"/>
</mask>
<path d="M1677.29 -53.4442L1675.69 -54.6438L1677.29 -53.4442ZM1769.54 -119.829L1770.18 -117.934L1775.35 -119.672L1770.28 -121.687L1769.54 -119.829ZM1636.31 81.8176L1634.34 81.4826L1634.34 81.4826L1636.31 81.8176ZM1635.38 87.273L1633.41 86.9375L1635.38 87.273ZM1552.85 194.943L1551.2 196.073L1552.36 197.778L1554.03 196.555L1552.85 194.943ZM1787.11 -110.74L1788.2 -112.417L1787.14 -113.104L1786.07 -112.446L1787.11 -110.74ZM1721.04 -28.5591L1719.13 -29.1543L1721.04 -28.5591ZM1703.98 29.4485L1702.06 28.9029L1703.98 29.4485ZM1657.66 147.172L1659.34 148.26L1657.66 147.172ZM1558.43 202.401L1558.33 200.403L1554.38 200.601L1556.88 203.666L1558.43 202.401ZM1678.89 -52.2447C1706.49 -89.0587 1740.95 -108.099 1770.18 -117.934L1768.9 -121.725C1739.09 -111.694 1703.88 -92.2464 1675.69 -54.6438L1678.89 -52.2447ZM1638.28 82.1527C1648.75 20.5432 1655.97 -21.6687 1678.89 -52.2447L1675.69 -54.6438C1652.06 -23.1215 1644.75 20.2289 1634.34 81.4826L1638.28 82.1527ZM1637.35 87.6085C1637.67 85.7736 1637.98 83.955 1638.28 82.1527L1634.34 81.4826C1634.03 83.285 1633.72 85.1031 1633.41 86.9375L1637.35 87.6085ZM1554.03 196.555C1565.31 188.272 1584 173.37 1600.93 154.424C1617.83 135.511 1633.14 112.371 1637.35 87.6085L1633.41 86.9375C1629.38 110.609 1614.65 133.066 1597.94 151.759C1581.27 170.42 1562.82 185.136 1551.66 193.331L1554.03 196.555ZM1554.5 193.813C1520.69 144.456 1522.87 62.1332 1565.76 -12.1592L1562.3 -14.1592C1518.92 60.9706 1516.23 145.033 1551.2 196.073L1554.5 193.813ZM1565.76 -12.1592C1590.95 -55.7908 1625.62 -88.714 1662.06 -107.478C1698.52 -126.247 1736.6 -130.786 1768.8 -117.971L1770.28 -121.687C1736.72 -135.042 1697.41 -130.176 1660.23 -111.034C1623.04 -91.8854 1587.83 -58.3889 1562.3 -14.1592L1565.76 -12.1592ZM1786.07 -112.446C1761.02 -97.1158 1732.23 -71.167 1719.13 -29.1543L1722.95 -27.9639C1735.67 -68.7614 1763.64 -94.0258 1788.15 -109.034L1786.07 -112.446ZM1719.13 -29.1543C1712.39 -7.5334 1706.97 11.5907 1702.06 28.9029L1705.91 29.9942C1710.82 12.6798 1716.23 -6.39835 1722.95 -27.9639L1719.13 -29.1543ZM1702.06 28.9029C1688.44 76.9166 1678.8 110.872 1655.98 146.084L1659.34 148.26C1682.53 112.464 1692.31 77.926 1705.91 29.9942L1702.06 28.9029ZM1655.98 146.084C1627.08 190.692 1582.05 199.215 1558.33 200.403L1558.53 204.398C1582.82 203.181 1629.42 194.431 1659.34 148.26L1655.98 146.084ZM1587.43 224.578C1576.8 218.443 1567.64 210.516 1559.98 201.136L1556.88 203.666C1564.84 213.405 1574.36 221.655 1585.43 228.042L1587.43 224.578ZM1803.28 124.973C1776.37 171.574 1738.66 205.954 1699.52 223.919C1660.38 241.887 1619.99 243.378 1587.43 224.578L1585.43 228.042C1619.41 247.662 1661.22 245.902 1701.19 227.555C1741.17 209.205 1779.47 174.207 1806.74 126.973L1803.28 124.973ZM1786.02 -109.063C1816.6 -89.2 1834.1 -53.6006 1837.34 -11.3905C1840.59 30.8102 1829.57 79.444 1803.28 124.973L1806.74 126.973C1833.39 80.8233 1844.65 31.3926 1841.33 -11.6974C1838.02 -54.778 1820.1 -91.6956 1788.2 -112.417L1786.02 -109.063Z" fill="white" mask="url(#path-23-inside-12)"/>
</g>
<g opacity="0.2">
<mask id="path-25-inside-13" fill="white">
<path fill-rule="evenodd" clip-rule="evenodd" d="M1639.02 -388.398C1608.56 -381.234 1551.09 -359.937 1514.86 -298.098C1495.24 -264.62 1492.85 -221.291 1489.41 -159.074C1489.31 -157.249 1489.21 -155.407 1489.11 -153.549C1486.98 -115.187 1457.96 -77.2624 1435.63 -53.5098C1434.9 -53.9076 1434.18 -54.3151 1433.45 -54.7325C1366.91 -93.1528 1356.88 -200.367 1411.05 -294.202C1465.23 -388.036 1563.09 -432.959 1629.64 -394.538C1632.9 -392.654 1636.03 -390.604 1639.02 -388.398ZM1643.87 -384.591C1619.15 -371.349 1572.74 -338.978 1561.14 -278.312C1556.89 -256.097 1553.66 -236.506 1550.74 -218.75C1542.64 -169.547 1536.86 -134.423 1518.01 -96.5484C1504.32 -69.055 1484.05 -52.7381 1464.73 -43.0544C1527.94 -30.6434 1605.86 -75.0886 1652.04 -155.069C1702.09 -241.753 1697.34 -339.853 1643.87 -384.591Z"/>
</mask>
<path d="M1514.86 -298.098L1513.13 -299.109L1514.86 -298.098ZM1639.02 -388.398L1639.48 -386.451L1643.69 -387.441L1640.21 -390.008L1639.02 -388.398ZM1489.41 -159.074L1491.41 -158.964L1491.41 -158.964L1489.41 -159.074ZM1489.11 -153.549L1491.1 -153.438L1489.11 -153.549ZM1435.63 -53.5098L1434.68 -51.7534L1436.03 -51.0147L1437.09 -52.1402L1435.63 -53.5098ZM1643.87 -384.591L1645.15 -386.125L1644.11 -386.993L1642.92 -386.354L1643.87 -384.591ZM1561.14 -278.312L1559.17 -278.688L1561.14 -278.312ZM1550.74 -218.75L1552.71 -218.425L1550.74 -218.75ZM1518.01 -96.5484L1519.8 -95.6573L1518.01 -96.5484ZM1464.73 -43.0544L1463.84 -44.8422L1458.61 -42.2193L1464.35 -41.0919L1464.73 -43.0544ZM1516.58 -297.087C1552.43 -358.262 1609.29 -379.35 1639.48 -386.451L1638.57 -390.345C1607.83 -383.117 1549.76 -361.611 1513.13 -299.109L1516.58 -297.087ZM1491.41 -158.964C1494.85 -221.361 1497.26 -264.119 1516.58 -297.087L1513.13 -299.109C1493.22 -265.121 1490.84 -221.221 1487.41 -159.184L1491.41 -158.964ZM1491.1 -153.438C1491.21 -155.296 1491.31 -157.138 1491.41 -158.964L1487.41 -159.184C1487.31 -157.359 1487.21 -155.517 1487.11 -153.66L1491.1 -153.438ZM1437.09 -52.1402C1448.31 -64.0792 1461.25 -79.6143 1471.66 -97.0243C1482.06 -114.419 1490.01 -133.811 1491.1 -153.438L1487.11 -153.66C1486.07 -134.924 1478.45 -116.173 1468.23 -99.0771C1458.01 -81.9963 1445.28 -66.693 1434.18 -54.8795L1437.09 -52.1402ZM1436.59 -55.2662C1435.87 -55.656 1435.16 -56.0554 1434.45 -56.4645L1432.45 -53.0004C1433.19 -52.5748 1433.93 -52.1591 1434.68 -51.7534L1436.59 -55.2662ZM1434.45 -56.4645C1401.89 -75.2647 1382.99 -110.991 1378.97 -153.873C1374.96 -196.749 1385.88 -246.601 1412.79 -293.202L1409.32 -295.202C1382.05 -247.967 1370.9 -197.295 1374.99 -153.5C1379.09 -109.712 1398.47 -72.6206 1432.45 -53.0004L1434.45 -56.4645ZM1412.79 -293.202C1439.69 -339.802 1477.41 -374.183 1516.54 -392.148C1555.69 -410.116 1596.08 -411.606 1628.64 -392.806L1630.64 -396.27C1596.66 -415.891 1554.84 -414.131 1514.87 -395.783C1474.9 -377.434 1436.59 -342.436 1409.32 -295.202L1412.79 -293.202ZM1628.64 -392.806C1631.84 -390.959 1634.9 -388.95 1637.84 -386.789L1640.21 -390.008C1637.16 -392.258 1633.97 -394.349 1630.64 -396.27L1628.64 -392.806ZM1642.92 -386.354C1618.01 -373.008 1570.95 -340.241 1559.17 -278.688L1563.1 -277.936C1574.54 -337.715 1620.29 -369.69 1644.81 -382.828L1642.92 -386.354ZM1559.17 -278.688C1554.92 -256.444 1551.69 -236.83 1548.76 -219.074L1552.71 -218.425C1555.64 -236.183 1558.86 -255.75 1563.1 -277.936L1559.17 -278.688ZM1548.76 -219.074C1540.66 -169.83 1534.91 -135.003 1516.22 -97.4396L1519.8 -95.6573C1538.8 -133.843 1544.62 -169.265 1552.71 -218.425L1548.76 -219.074ZM1516.22 -97.4396C1502.76 -70.4004 1482.84 -54.3678 1463.84 -44.8422L1465.63 -41.2666C1485.26 -51.1083 1505.89 -67.7096 1519.8 -95.6573L1516.22 -97.4396ZM1650.31 -156.069C1604.37 -76.5054 1527.17 -32.8327 1465.12 -45.0169L1464.35 -41.0919C1528.71 -28.4541 1607.35 -73.6718 1653.77 -154.069L1650.31 -156.069ZM1642.58 -383.057C1668.78 -361.145 1683.18 -326.035 1684.77 -285.481C1686.37 -244.941 1675.16 -199.115 1650.31 -156.069L1653.77 -154.069C1678.96 -197.706 1690.4 -244.273 1688.77 -285.639C1687.14 -326.99 1672.43 -363.3 1645.15 -386.125L1642.58 -383.057Z" fill="white" mask="url(#path-25-inside-13)"/>
</g>
<g opacity="0.2">
<mask id="path-27-inside-14" fill="white">
<path fill-rule="evenodd" clip-rule="evenodd" d="M1097 35.7047C1067.1 50.7138 1026.48 80.1393 1004.06 134.858C989.339 170.762 993.061 213.997 998.406 276.079C998.563 277.901 998.721 279.738 998.881 281.593C1002.53 324.057 973.329 370.64 954.058 396.335C947.203 394.156 940.568 391.249 934.218 387.583C867.672 349.163 857.644 241.949 911.819 148.114C957.481 69.0257 1034.18 24.6844 1097 35.7047ZM1109.83 38.7963C1086.77 58.2454 1055.23 94.3804 1052.66 147.942C1051.57 170.534 1051.13 190.383 1050.73 208.375C1049.63 258.227 1048.84 293.816 1035.51 333.964C1023.87 368.997 1000.53 389.379 979.59 401.08C1039.94 404.979 1110 361.376 1152.8 287.246C1206.98 193.411 1196.95 86.1974 1130.4 47.7771C1123.83 43.9809 1116.95 40.9983 1109.83 38.7963Z"/>
</mask>
<path d="M1004.06 134.858L1005.91 135.617L1004.06 134.858ZM1097 35.7047L1097.9 37.4921L1103.3 34.7794L1097.35 33.7348L1097 35.7047ZM998.406 276.079L996.414 276.251L998.406 276.079ZM998.881 281.593L1000.87 281.422L998.881 281.593ZM954.058 396.335L953.452 398.241L954.806 398.671L955.658 397.535L954.058 396.335ZM1109.83 38.7963L1110.43 36.8857L1109.38 36.5623L1108.54 37.2673L1109.83 38.7963ZM1052.66 147.942L1054.65 148.038L1052.66 147.942ZM1050.73 208.375L1048.74 208.331L1050.73 208.375ZM1035.51 333.964L1037.4 334.595L1035.51 333.964ZM979.59 401.08L978.614 399.334L972.7 402.639L979.461 403.076L979.59 401.08ZM1005.91 135.617C1028.09 81.4836 1068.28 52.3631 1097.9 37.4921L1096.1 33.9173C1065.93 49.0644 1024.87 78.7949 1002.2 134.1L1005.91 135.617ZM1000.4 275.908C995.038 213.645 991.414 170.974 1005.91 135.617L1002.2 134.1C987.264 170.551 991.084 214.348 996.414 276.251L1000.4 275.908ZM1000.87 281.422C1000.71 279.567 1000.56 277.729 1000.4 275.908L996.414 276.251C996.571 278.072 996.729 279.91 996.888 281.764L1000.87 281.422ZM955.658 397.535C965.342 384.622 977.548 366.427 986.881 346.086C996.203 325.77 1002.74 303.141 1000.87 281.422L996.888 281.764C998.669 302.508 992.429 324.403 983.245 344.418C974.073 364.409 962.045 382.352 952.458 395.135L955.658 397.535ZM954.663 394.429C947.944 392.293 941.441 389.444 935.218 385.851L933.218 389.315C939.694 393.054 946.462 396.019 953.452 398.241L954.663 394.429ZM935.218 385.851C902.655 367.051 883.75 331.325 879.739 288.443C875.729 245.566 886.646 195.715 913.551 149.114L910.087 147.114C882.816 194.348 871.66 245.021 875.756 288.815C879.852 332.604 899.235 369.695 933.218 389.315L935.218 385.851ZM913.551 149.114C958.971 70.4435 1034.96 26.8528 1096.66 37.6746L1097.35 33.7348C1033.39 22.5159 955.99 67.608 910.087 147.114L913.551 149.114ZM1108.54 37.2673C1085.27 56.8909 1053.27 93.497 1050.66 147.846L1054.65 148.038C1057.19 95.2638 1088.27 59.5999 1111.12 40.3252L1108.54 37.2673ZM1050.66 147.846C1049.57 170.467 1049.13 190.34 1048.74 208.331L1052.73 208.419C1053.13 190.426 1053.57 170.601 1054.65 148.038L1050.66 147.846ZM1048.74 208.331C1047.63 258.225 1046.84 293.515 1033.61 333.334L1037.4 334.595C1050.85 294.116 1051.63 258.229 1052.73 208.419L1048.74 208.331ZM1033.61 333.334C1022.17 367.777 999.236 387.811 978.614 399.334L980.566 402.826C1001.82 390.948 1025.57 370.216 1037.4 334.595L1033.61 333.334ZM1151.07 286.246C1108.51 359.957 1039.07 402.918 979.719 399.084L979.461 403.076C1040.81 407.04 1111.49 362.794 1154.54 288.246L1151.07 286.246ZM1129.4 49.5091C1161.97 68.3093 1180.87 104.035 1184.88 146.917C1188.89 189.794 1177.98 239.645 1151.07 286.246L1154.54 288.246C1181.81 241.012 1192.96 190.339 1188.87 146.545C1184.77 102.756 1165.39 65.6651 1131.4 46.045L1129.4 49.5091ZM1109.24 40.7068C1116.22 42.8655 1122.96 45.7887 1129.4 49.5091L1131.4 46.045C1124.7 42.1731 1117.68 39.1311 1110.43 36.8857L1109.24 40.7068Z" fill="white" mask="url(#path-27-inside-14)"/>
</g>
<g opacity="0.2">
<mask id="path-29-inside-15" fill="white">
<path fill-rule="evenodd" clip-rule="evenodd" d="M1321.31 -320.567C1288.51 -314.305 1238.8 -296.575 1201.6 -246.729C1178.39 -215.633 1171.21 -172.837 1160.9 -111.384C1160.59 -109.581 1160.29 -107.762 1159.98 -105.927C1153.06 -64.7583 1114.64 -27.6242 1089.51 -7.25447C1042.88 -54.5199 1040.8 -147.531 1088.51 -230.166C1142.68 -324.001 1240.55 -368.924 1307.09 -330.503C1312.16 -327.578 1316.9 -324.254 1321.31 -320.567ZM1328.73 -313.708C1301.52 -300.764 1261.4 -273.616 1245.4 -221.933C1238.71 -200.327 1233.34 -181.214 1228.46 -163.891C1214.96 -115.891 1205.31 -81.6244 1182.38 -46.0733C1160.77 -12.572 1130.21 0.97839 1106.01 6.28891C1107.61 7.33577 1109.24 8.34078 1110.91 9.30267C1177.45 47.723 1275.32 2.80064 1329.49 -91.0342C1377.12 -173.531 1375.13 -266.369 1328.73 -313.708Z"/>
</mask>
<path d="M1201.6 -246.729L1200 -247.926L1201.6 -246.729ZM1321.31 -320.567L1321.68 -318.603L1325.83 -319.394L1322.59 -322.102L1321.31 -320.567ZM1160.9 -111.384L1162.87 -111.053L1162.87 -111.053L1160.9 -111.384ZM1159.98 -105.927L1161.95 -105.595L1161.95 -105.595L1159.98 -105.927ZM1089.51 -7.25447L1088.08 -5.84992L1089.36 -4.5586L1090.77 -5.70067L1089.51 -7.25447ZM1328.73 -313.708L1330.16 -315.108L1329.16 -316.127L1327.87 -315.514L1328.73 -313.708ZM1245.4 -221.933L1247.31 -221.342L1245.4 -221.933ZM1228.46 -163.891L1226.54 -164.433L1228.46 -163.891ZM1182.38 -46.0733L1184.06 -44.9892L1182.38 -46.0733ZM1106.01 6.28891L1105.59 4.33542L1100.95 5.35414L1104.92 7.96097L1106.01 6.28891ZM1203.2 -245.533C1240.01 -294.844 1289.18 -312.397 1321.68 -318.603L1320.93 -322.532C1287.84 -316.213 1237.6 -298.305 1200 -247.926L1203.2 -245.533ZM1162.87 -111.053C1173.21 -172.684 1180.35 -214.91 1203.2 -245.533L1200 -247.926C1176.44 -216.355 1169.21 -172.99 1158.92 -111.715L1162.87 -111.053ZM1161.95 -105.595C1162.26 -107.431 1162.57 -109.25 1162.87 -111.053L1158.92 -111.715C1158.62 -109.912 1158.32 -108.093 1158.01 -106.258L1161.95 -105.595ZM1090.77 -5.70067C1103.4 -15.9374 1119.4 -30.414 1133.13 -47.54C1146.85 -64.6468 1158.41 -84.5369 1161.95 -105.595L1158.01 -106.258C1154.63 -86.1481 1143.52 -66.887 1130.01 -50.0422C1116.52 -33.2166 1100.75 -18.9413 1088.25 -8.80826L1090.77 -5.70067ZM1090.93 -8.65902C1045.19 -55.025 1042.77 -146.943 1090.24 -229.166L1086.78 -231.166C1038.83 -148.119 1040.57 -54.0149 1088.08 -5.84992L1090.93 -8.65902ZM1090.24 -229.166C1117.15 -275.767 1154.86 -310.148 1194 -328.113C1233.14 -346.08 1273.53 -347.571 1306.09 -328.771L1308.09 -332.235C1274.11 -351.855 1232.3 -350.095 1192.33 -331.748C1152.35 -313.398 1114.05 -278.4 1086.78 -231.166L1090.24 -229.166ZM1306.09 -328.771C1311.06 -325.904 1315.7 -322.647 1320.02 -319.033L1322.59 -322.102C1318.09 -325.861 1313.26 -329.252 1308.09 -332.235L1306.09 -328.771ZM1327.87 -315.514C1300.42 -302.455 1259.72 -274.967 1243.49 -222.525L1247.31 -221.342C1263.07 -272.265 1302.62 -299.073 1329.59 -311.902L1327.87 -315.514ZM1243.49 -222.525C1236.8 -200.89 1231.41 -181.755 1226.54 -164.433L1230.39 -163.35C1235.26 -180.674 1240.63 -199.763 1247.31 -221.342L1243.49 -222.525ZM1226.54 -164.433C1213.02 -116.392 1203.44 -82.4165 1180.7 -47.1575L1184.06 -44.9892C1207.18 -80.8323 1216.89 -115.39 1230.39 -163.35L1226.54 -164.433ZM1180.7 -47.1575C1159.46 -14.2232 1129.43 -0.89789 1105.59 4.33542L1106.44 8.2424C1130.99 2.85467 1162.08 -10.9207 1184.06 -44.9892L1180.7 -47.1575ZM1111.91 7.57062C1110.27 6.62782 1108.68 5.64281 1107.11 4.61685L1104.92 7.96097C1106.54 9.02872 1108.21 10.0537 1109.91 11.0347L1111.91 7.57062ZM1327.76 -92.0342C1300.86 -45.4334 1263.14 -11.0529 1224 6.91228C1184.86 24.8798 1144.47 26.3708 1111.91 7.57062L1109.91 11.0347C1143.89 30.6549 1185.7 28.8948 1225.67 10.5476C1265.65 -7.8021 1303.95 -42.8001 1331.22 -90.0342L1327.76 -92.0342ZM1327.3 -312.308C1372.82 -265.868 1375.15 -174.119 1327.76 -92.0342L1331.22 -90.0342C1379.09 -172.943 1377.44 -266.87 1330.16 -315.108L1327.3 -312.308Z" fill="white" mask="url(#path-29-inside-15)"/>
</g>
<g opacity="0.2">
<mask id="path-31-inside-16" fill="white">
<path fill-rule="evenodd" clip-rule="evenodd" d="M166.307 305.635C133.511 311.897 83.8034 329.627 46.601 379.473C23.3921 410.569 16.2096 453.365 5.89603 514.818C5.59344 516.621 5.28814 518.44 4.97969 520.275C-1.93981 561.444 -40.3582 598.578 -65.4926 618.948C-112.119 571.682 -114.201 478.671 -66.492 396.036C-12.3164 302.201 85.5477 257.279 152.094 295.699C157.16 298.624 161.899 301.948 166.307 305.635ZM173.727 312.494C146.521 325.438 106.398 352.586 90.4016 404.269C83.7141 425.876 78.3364 444.988 73.462 462.311C59.9557 510.311 50.3139 544.578 27.3808 580.129C5.76988 613.63 -24.7944 627.181 -48.9851 632.491C-47.39 633.538 -45.7594 634.543 -44.0934 635.505C22.4525 673.925 120.317 629.003 174.492 535.168C222.122 452.671 220.126 359.833 173.727 312.494Z"/>
</mask>
<path d="M46.601 379.473L44.9982 378.277L46.601 379.473ZM166.307 305.635L166.682 307.599L170.827 306.808L167.59 304.101L166.307 305.635ZM5.89603 514.818L7.86845 515.149L7.86844 515.149L5.89603 514.818ZM4.97969 520.275L6.95202 520.607L6.95203 520.607L4.97969 520.275ZM-65.4926 618.948L-66.9164 620.352L-65.6426 621.644L-64.2334 620.501L-65.4926 618.948ZM173.727 312.494L175.155 311.094L174.156 310.075L172.868 310.688L173.727 312.494ZM90.4016 404.269L88.491 403.677L90.4016 404.269ZM73.462 462.311L75.3872 462.853L73.462 462.311ZM27.3808 580.129L25.7001 579.045L27.3808 580.129ZM-48.9851 632.491L-49.4139 630.538L-54.0545 631.556L-50.0825 634.163L-48.9851 632.491ZM48.2038 380.669C85.0074 331.358 134.184 313.805 166.682 307.599L165.932 303.67C132.838 309.989 82.5994 327.897 44.9982 378.277L48.2038 380.669ZM7.86844 515.149C18.2119 453.518 25.3485 411.292 48.2038 380.669L44.9982 378.277C21.4356 409.847 14.2074 453.212 3.92362 514.487L7.86844 515.149ZM6.95203 520.607C7.26053 518.771 7.56586 516.952 7.86845 515.149L3.92362 514.487C3.62102 516.29 3.31576 518.109 3.00735 519.944L6.95203 520.607ZM-64.2334 620.501C-51.6022 610.265 -35.5973 595.788 -21.8655 578.662C-8.14914 561.555 3.41259 541.665 6.95202 520.607L3.00736 519.944C-0.372713 540.054 -11.4799 559.315 -24.9862 576.16C-38.4771 592.986 -54.2486 607.261 -66.7519 617.394L-64.2334 620.501ZM-64.0688 617.543C-109.807 571.177 -112.231 479.259 -64.7599 397.036L-68.224 395.036C-116.171 478.083 -114.43 572.187 -66.9164 620.352L-64.0688 617.543ZM-64.7599 397.036C-37.8549 350.435 -0.141061 316.054 38.9963 298.089C78.1389 280.122 118.531 278.631 151.094 297.431L153.094 293.967C119.111 274.347 77.2974 276.107 37.3276 294.454C-2.64747 312.804 -40.9534 347.802 -68.224 395.036L-64.7599 397.036ZM151.094 297.431C156.059 300.298 160.704 303.556 165.024 307.169L167.59 304.101C163.095 300.341 158.261 296.95 153.094 293.967L151.094 297.431ZM172.868 310.688C145.42 323.747 104.722 351.235 88.491 403.677L92.3122 404.86C108.073 353.937 147.623 327.129 174.586 314.3L172.868 310.688ZM88.491 403.677C81.7949 425.312 76.4108 444.447 71.5367 461.769L75.3872 462.853C80.2619 445.528 85.6333 426.439 92.3122 404.86L88.491 403.677ZM71.5367 461.769C58.0189 509.811 48.4448 543.786 25.7001 579.045L29.0614 581.213C52.1829 545.37 61.8924 510.812 75.3872 462.853L71.5367 461.769ZM25.7001 579.045C4.45506 611.979 -25.575 625.304 -49.4139 630.538L-48.5563 634.445C-24.0138 629.057 7.0847 615.281 29.0614 581.213L25.7001 579.045ZM-43.0934 633.773C-44.7264 632.83 -46.3245 631.845 -47.8878 630.819L-50.0825 634.163C-48.4556 635.231 -46.7925 636.256 -45.0934 637.237L-43.0934 633.773ZM172.76 534.168C145.855 580.769 108.141 615.149 69.0039 633.114C29.8613 651.082 -10.5306 652.573 -43.0934 633.773L-45.0934 637.237C-11.1103 656.857 30.7028 655.097 70.6726 636.75C110.648 618.4 148.954 583.402 176.224 536.168L172.76 534.168ZM172.298 313.894C217.816 360.334 220.152 452.084 172.76 534.168L176.224 536.168C224.092 453.259 222.435 359.332 175.155 311.094L172.298 313.894Z" fill="white" mask="url(#path-31-inside-16)"/>
</g>
<g opacity="0.2">
<mask id="path-33-inside-17" fill="white">
<path fill-rule="evenodd" clip-rule="evenodd" d="M192.395 -376.218C159.599 -369.956 109.892 -352.226 72.6893 -302.38C49.4804 -271.284 42.2979 -228.488 31.9843 -167.035C31.6817 -165.232 31.3764 -163.413 31.068 -161.578C24.1485 -120.409 -14.2701 -83.2751 -39.4045 -62.9054C-86.0304 -110.171 -88.1133 -203.182 -40.4038 -285.817C13.7717 -379.652 111.636 -424.574 178.182 -386.154C183.248 -383.229 187.987 -379.905 192.395 -376.218ZM199.815 -369.359C172.609 -356.415 132.486 -329.267 116.49 -277.584C109.802 -255.978 104.425 -236.865 99.5503 -219.542C86.044 -171.542 76.4022 -137.275 53.469 -101.724C31.8581 -68.2228 1.29368 -54.6725 -22.8971 -49.362C-21.302 -48.3151 -19.6714 -47.3101 -18.0053 -46.3482C48.5406 -7.9279 146.405 -52.8502 200.58 -146.685C248.21 -229.182 246.214 -322.02 199.815 -369.359Z"/>
</mask>
<path d="M72.6893 -302.38L71.0865 -303.576L72.6893 -302.38ZM192.395 -376.218L192.77 -374.254L196.915 -375.045L193.678 -377.753L192.395 -376.218ZM31.9843 -167.035L33.9567 -166.704L33.9567 -166.704L31.9843 -167.035ZM31.068 -161.578L33.0403 -161.246L33.0403 -161.246L31.068 -161.578ZM-39.4045 -62.9054L-40.8283 -61.5008L-39.5544 -60.2095L-38.1452 -61.3516L-39.4045 -62.9054ZM199.815 -369.359L201.243 -370.759L200.244 -371.778L198.956 -371.165L199.815 -369.359ZM116.49 -277.584L118.4 -276.993L116.49 -277.584ZM99.5503 -219.542L101.476 -219L99.5503 -219.542ZM53.469 -101.724L55.1497 -100.64L53.469 -101.724ZM-22.8971 -49.362L-23.3259 -51.3155L-27.9664 -50.2968L-23.9945 -47.6899L-22.8971 -49.362ZM74.2921 -301.184C111.096 -350.495 160.272 -368.048 192.77 -374.254L192.02 -378.183C158.927 -371.864 108.688 -353.956 71.0865 -303.576L74.2921 -301.184ZM33.9567 -166.704C44.3002 -228.335 51.4368 -270.561 74.2921 -301.184L71.0865 -303.576C47.5239 -272.006 40.2956 -228.641 30.0119 -167.366L33.9567 -166.704ZM33.0403 -161.246C33.3488 -163.082 33.6541 -164.901 33.9567 -166.704L30.0119 -167.366C29.7093 -165.563 29.404 -163.744 29.0956 -161.909L33.0403 -161.246ZM-38.1452 -61.3516C-25.514 -71.5883 -9.50913 -86.0648 4.2227 -103.191C17.9391 -120.298 29.5009 -140.188 33.0403 -161.246L29.0956 -161.909C25.7156 -141.799 14.6083 -122.538 1.10198 -105.693C-12.3889 -88.8675 -28.1605 -74.5922 -40.6637 -64.4592L-38.1452 -61.3516ZM-37.9807 -64.3099C-83.7193 -110.676 -86.1433 -202.594 -38.6718 -284.817L-42.1359 -286.817C-90.0833 -203.77 -88.3415 -109.666 -40.8283 -61.5008L-37.9807 -64.3099ZM-38.6718 -284.817C-11.7668 -331.418 25.9471 -365.799 65.0844 -383.764C104.227 -401.731 144.619 -403.222 177.182 -384.422L179.182 -387.886C145.199 -407.506 103.386 -405.746 63.4157 -387.399C23.4407 -369.049 -14.8653 -334.051 -42.1359 -286.817L-38.6718 -284.817ZM177.182 -384.422C182.147 -381.555 186.792 -378.297 191.112 -374.684L193.678 -377.753C189.183 -381.512 184.349 -384.903 179.182 -387.886L177.182 -384.422ZM198.956 -371.165C171.508 -358.106 130.811 -330.618 114.579 -278.176L118.4 -276.993C134.161 -327.916 173.711 -354.724 200.674 -367.553L198.956 -371.165ZM114.579 -278.176C107.883 -256.541 102.499 -237.406 97.625 -220.084L101.476 -219C106.35 -236.325 111.722 -255.414 118.4 -276.993L114.579 -278.176ZM97.625 -220.084C84.1072 -172.043 74.5331 -138.067 51.7884 -102.808L55.1497 -100.64C78.2712 -136.483 87.9807 -171.041 101.476 -219L97.625 -220.084ZM51.7884 -102.808C30.5433 -69.8741 0.513108 -56.5488 -23.3259 -51.3155L-22.4682 -47.4085C2.07425 -52.7962 33.1729 -66.5715 55.1497 -100.64L51.7884 -102.808ZM-17.0053 -48.0803C-18.6383 -49.0231 -20.2365 -50.0081 -21.7997 -51.0341L-23.9945 -47.6899C-22.3675 -46.6222 -20.7044 -45.5972 -19.0053 -44.6162L-17.0053 -48.0803ZM198.848 -147.685C171.943 -101.084 134.229 -66.7038 95.092 -48.7386C55.9495 -30.7711 15.5576 -29.2801 -17.0053 -48.0803L-19.0053 -44.6162C14.9778 -24.996 56.7909 -26.756 96.7607 -45.1033C136.736 -63.453 175.042 -98.451 202.312 -145.685L198.848 -147.685ZM198.387 -367.959C243.904 -321.519 246.24 -229.769 198.848 -147.685L202.312 -145.685C250.18 -228.594 248.523 -322.521 201.243 -370.759L198.387 -367.959Z" fill="white" mask="url(#path-33-inside-17)"/>
</g>
<g opacity="0.2">
<mask id="path-35-inside-18" fill="white">
<path fill-rule="evenodd" clip-rule="evenodd" d="M972.673 406.431C939.877 412.693 890.169 430.423 852.967 480.269C829.758 511.365 822.576 554.161 812.262 615.614C811.959 617.417 811.654 619.236 811.346 621.071C804.426 662.24 766.008 699.374 740.873 719.744C694.247 672.478 692.164 579.467 739.874 496.832C794.049 402.997 891.913 358.075 958.459 396.495C963.526 399.42 968.265 402.744 972.673 406.431ZM980.093 413.29C952.887 426.234 912.764 453.382 896.768 505.065C890.08 526.672 884.702 545.784 879.828 563.107C866.322 611.107 856.68 645.374 833.747 680.925C812.136 714.426 781.571 727.977 757.381 733.287C758.976 734.334 760.606 735.339 762.272 736.301C828.818 774.721 926.682 729.799 980.858 635.964C1028.49 553.467 1026.49 460.629 980.093 413.29Z"/>
</mask>
<path d="M852.967 480.269L851.364 479.073L852.967 480.269ZM972.673 406.431L973.048 408.395L977.193 407.604L973.956 404.897L972.673 406.431ZM812.262 615.614L814.234 615.945L814.234 615.945L812.262 615.614ZM811.346 621.071L809.373 620.74L811.346 621.071ZM740.873 719.744L739.449 721.148L740.723 722.44L742.132 721.297L740.873 719.744ZM980.093 413.29L981.521 411.89L980.522 410.871L979.233 411.484L980.093 413.29ZM896.768 505.065L894.857 504.473L896.768 505.065ZM879.828 563.107L877.903 562.565L879.828 563.107ZM833.747 680.925L832.066 679.841L833.747 680.925ZM757.381 733.287L756.952 731.334L752.311 732.352L756.283 734.959L757.381 733.287ZM854.57 481.465C891.373 432.154 940.549 414.601 973.048 408.395L972.298 404.466C939.204 410.785 888.965 428.693 851.364 479.073L854.57 481.465ZM814.234 615.945C824.578 554.314 831.714 512.088 854.57 481.465L851.364 479.073C827.802 510.643 820.573 554.008 810.29 615.283L814.234 615.945ZM813.318 621.403C813.626 619.567 813.932 617.748 814.234 615.945L810.29 615.283C809.987 617.086 809.682 618.905 809.373 620.74L813.318 621.403ZM742.132 721.297C754.764 711.061 770.769 696.584 784.5 679.458C798.217 662.351 809.778 642.461 813.318 621.403L809.373 620.74C805.993 640.85 794.886 660.111 781.38 676.956C767.889 693.781 752.117 708.057 739.614 718.19L742.132 721.297ZM742.297 718.339C696.558 671.973 694.134 580.055 741.606 497.832L738.142 495.832C690.194 578.879 691.936 672.983 739.449 721.148L742.297 718.339ZM741.606 497.832C768.511 451.231 806.225 416.85 845.362 398.885C884.505 380.918 924.896 379.427 957.459 398.227L959.459 394.763C925.476 375.143 883.663 376.903 843.693 395.25C803.718 413.6 765.412 448.598 738.142 495.832L741.606 497.832ZM957.459 398.227C962.425 401.094 967.07 404.352 971.39 407.965L973.956 404.897C969.461 401.137 964.627 397.746 959.459 394.763L957.459 398.227ZM979.233 411.484C951.786 424.543 911.088 452.031 894.857 504.473L898.678 505.656C914.439 454.733 953.989 427.925 980.952 415.096L979.233 411.484ZM894.857 504.473C888.161 526.108 882.777 545.243 877.903 562.565L881.753 563.649C886.628 546.324 891.999 527.235 898.678 505.656L894.857 504.473ZM877.903 562.565C864.385 610.607 854.811 644.582 832.066 679.841L835.427 682.009C858.549 646.166 868.258 611.608 881.753 563.649L877.903 562.565ZM832.066 679.841C810.821 712.775 780.791 726.1 756.952 731.334L757.81 735.241C782.352 729.853 813.451 716.077 835.427 682.009L832.066 679.841ZM763.272 734.569C761.639 733.626 760.041 732.641 758.478 731.615L756.283 734.959C757.91 736.027 759.573 737.052 761.272 738.033L763.272 734.569ZM979.126 634.964C952.221 681.565 914.507 715.945 875.37 733.91C836.227 751.878 795.835 753.369 763.272 734.569L761.272 738.033C795.255 757.653 837.068 755.893 877.038 737.546C917.013 719.196 955.319 684.198 982.59 636.964L979.126 634.964ZM978.664 414.69C1024.18 461.13 1026.52 552.88 979.126 634.964L982.59 636.964C1030.46 554.055 1028.8 460.128 981.521 411.89L978.664 414.69Z" fill="white" mask="url(#path-35-inside-18)"/>
</g>
</g>
</svg>
