<svg xmlns="http://www.w3.org/2000/svg" width="35" height="31" viewBox="0 0 35 31"><defs><clipPath id="k0t2a"><path fill="#fff" d="M-.1 13.1V-.1h35.2v13.2zm32.578-9.451C29.234.959 22.614 0 17.5 0 12.386 0 5.766.958 2.522 3.649-.35 6.03.006 10.845.022 11.049a.565.565 0 0 0 .373.486c.083.029 2.058.718 5.946.718a.564.564 0 0 0 0-1.13c-2.755 0-4.502-.364-5.208-.548-.02-1.117.107-4.396 2.11-6.057 3.013-2.499 9.34-3.39 14.257-3.39s11.244.891 14.257 3.39c1.997 1.656 2.127 4.94 2.11 6.057-.708.184-2.454.549-5.208.549a.564.564 0 1 0 0 1.129c3.888 0 5.863-.689 5.946-.718a.565.565 0 0 0 .373-.486c.016-.204.372-5.018-2.5-7.4z"/></clipPath><clipPath id="k0t2b"><path fill="#fff" d="M10.9 25.1V11.9h13.2v13.2zm6.603-12.67a5.84 5.84 0 0 0-5.833 5.833 5.84 5.84 0 0 0 5.833 5.833 5.84 5.84 0 0 0 5.833-5.833 5.84 5.84 0 0 0-5.833-5.833zm0 10.537a4.71 4.71 0 0 1-4.704-4.704 4.71 4.71 0 0 1 4.704-4.704 4.71 4.71 0 0 1 4.704 4.704 4.71 4.71 0 0 1-4.704 4.704z"/></clipPath><clipPath id="k0t2c"><path fill="#fff" d="M14.9 21.1v-6.2h5.2v6.2zm4.491-3.407a.564.564 0 0 0-.564.565 1.33 1.33 0 0 1-1.33 1.329 1.33 1.33 0 0 1-1.328-1.33 1.33 1.33 0 0 1 1.329-1.328.564.564 0 1 0 0-1.129 2.46 2.46 0 0 0-2.458 2.458 2.46 2.46 0 0 0 2.458 2.458 2.46 2.46 0 0 0 2.457-2.458.564.564 0 0 0-.564-.565z"/></clipPath><clipPath id="k0t2d"><path fill="#fff" d="M3.9 31.1V6.9h27.2v24.2zm23.718-14.014c-.376-.583-.705-1.736-.705-2.468v-3.91c0-1.162-.73-2.37-1.663-2.749C25.154 7.919 22.833 7 17.5 7s-7.654.92-7.75.959c-.932.38-1.663 1.587-1.663 2.75v3.909c0 .732-.33 1.885-.705 2.468l-2.446 3.795C4.41 21.695 4 23.133 4 24.155v4.58C4 29.986 4.862 31 5.921 31H29.08C30.139 31 31 29.984 31 28.736v-4.581c0-1.022-.41-2.46-.936-3.274zm2.252 11.65c0 .514-.355.932-.791.932H5.92c-.436 0-.79-.418-.79-.932v-4.581c0-.732.329-1.885.704-2.468l2.447-3.795c.525-.814.936-2.252.936-3.274v-3.91c0-.598.42-1.295.9-1.49.022-.008 2.273-.886 7.382-.886s7.36.878 7.381.886c.48.195.902.892.902 1.49v3.91c0 1.022.41 2.46.935 3.274l2.447 3.795c.375.583.705 1.736.705 2.468v4.58z"/></clipPath></defs><g><g><g><path fill="#6ea753" d="M32.478 3.649C29.234.959 22.614 0 17.5 0 12.386 0 5.766.958 2.522 3.649-.35 6.03.006 10.845.022 11.049a.565.565 0 0 0 .373.486c.083.029 2.058.718 5.946.718a.564.564 0 0 0 0-1.13c-2.755 0-4.502-.364-5.208-.548-.02-1.117.107-4.396 2.11-6.057 3.013-2.499 9.34-3.39 14.257-3.39s11.244.891 14.257 3.39c1.997 1.656 2.127 4.94 2.11 6.057-.708.184-2.454.549-5.208.549a.564.564 0 1 0 0 1.129c3.888 0 5.863-.689 5.946-.718a.565.565 0 0 0 .373-.486c.016-.204.372-5.018-2.5-7.4z"/><path fill="none" stroke="#6ea753" stroke-miterlimit="20" stroke-width=".2" d="M32.478 3.649C29.234.959 22.614 0 17.5 0 12.386 0 5.766.958 2.522 3.649-.35 6.03.006 10.845.022 11.049a.565.565 0 0 0 .373.486c.083.029 2.058.718 5.946.718a.564.564 0 0 0 0-1.13c-2.755 0-4.502-.364-5.208-.548-.02-1.117.107-4.396 2.11-6.057 3.013-2.499 9.34-3.39 14.257-3.39s11.244.891 14.257 3.39c1.997 1.656 2.127 4.94 2.11 6.057-.708.184-2.454.549-5.208.549a.564.564 0 1 0 0 1.129c3.888 0 5.863-.689 5.946-.718a.565.565 0 0 0 .373-.486c.016-.204.372-5.018-2.5-7.4z" clip-path="url(&quot;#k0t2a&quot;)"/></g><g><path fill="#6ea753" d="M23.336 18.263a5.84 5.84 0 0 1-5.833 5.833 5.84 5.84 0 0 1-5.833-5.833 5.84 5.84 0 0 1 5.833-5.833 5.84 5.84 0 0 1 5.833 5.833zm-1.13 0a4.71 4.71 0 0 0-4.703-4.704 4.71 4.71 0 0 0-4.704 4.704 4.71 4.71 0 0 0 4.704 4.704 4.71 4.71 0 0 0 4.704-4.704z"/><path fill="none" stroke="#6ea753" stroke-miterlimit="20" stroke-width=".2" d="M23.336 18.263a5.84 5.84 0 0 1-5.833 5.833 5.84 5.84 0 0 1-5.833-5.833 5.84 5.84 0 0 1 5.833-5.833 5.84 5.84 0 0 1 5.833 5.833zm-1.13 0a4.71 4.71 0 0 0-4.703-4.704 4.71 4.71 0 0 0-4.704 4.704 4.71 4.71 0 0 0 4.704 4.704 4.71 4.71 0 0 0 4.704-4.704z" clip-path="url(&quot;#k0t2b&quot;)"/></g><g><path fill="#6ea753" d="M19.391 17.693a.564.564 0 0 0-.564.565 1.33 1.33 0 0 1-1.33 1.329 1.33 1.33 0 0 1-1.328-1.33 1.33 1.33 0 0 1 1.329-1.328.564.564 0 1 0 0-1.129 2.46 2.46 0 0 0-2.458 2.458 2.46 2.46 0 0 0 2.458 2.458 2.46 2.46 0 0 0 2.457-2.458.564.564 0 0 0-.564-.565z"/><path fill="none" stroke="#6ea753" stroke-miterlimit="20" stroke-width=".2" d="M19.391 17.693a.564.564 0 0 0-.564.565 1.33 1.33 0 0 1-1.33 1.329 1.33 1.33 0 0 1-1.328-1.33 1.33 1.33 0 0 1 1.329-1.328.564.564 0 1 0 0-1.129 2.46 2.46 0 0 0-2.458 2.458 2.46 2.46 0 0 0 2.458 2.458 2.46 2.46 0 0 0 2.457-2.458.564.564 0 0 0-.564-.565z" clip-path="url(&quot;#k0t2c&quot;)"/></g><g><path fill="#6ea753" d="M30.064 20.881c.525.814.936 2.252.936 3.274v4.58c0 1.25-.862 2.265-1.921 2.265H5.92C4.861 31 4 29.984 4 28.736v-4.581c0-1.022.411-2.46.936-3.274l2.446-3.795c.376-.583.705-1.736.705-2.468v-3.91c0-1.162.73-2.37 1.663-2.749C9.846 7.919 12.167 7 17.5 7s7.654.92 7.75.959c.932.38 1.663 1.587 1.663 2.75v3.909c0 .732.33 1.885.705 2.468zm-.194 7.855v-4.581c0-.732-.33-1.885-.705-2.468l-2.447-3.795c-.525-.814-.935-2.252-.935-3.274v-3.91c0-.598-.422-1.295-.902-1.49-.02-.008-2.272-.886-7.381-.886s-7.36.878-7.383.886c-.478.195-.9.892-.9 1.49v3.91c0 1.022-.41 2.46-.935 3.274l-2.447 3.795c-.375.583-.705 1.736-.705 2.468v4.58c0 .515.355.933.791.933H29.08c.436 0 .79-.418.79-.932z"/><path fill="none" stroke="#6ea753" stroke-miterlimit="20" stroke-width=".2" d="M30.064 20.881c.525.814.936 2.252.936 3.274v4.58c0 1.25-.862 2.265-1.921 2.265H5.92C4.861 31 4 29.984 4 28.736v-4.581c0-1.022.411-2.46.936-3.274l2.446-3.795c.376-.583.705-1.736.705-2.468v-3.91c0-1.162.73-2.37 1.663-2.749C9.846 7.919 12.167 7 17.5 7s7.654.92 7.75.959c.932.38 1.663 1.587 1.663 2.75v3.909c0 .732.33 1.885.705 2.468zm-.194 7.855v-4.581c0-.732-.33-1.885-.705-2.468l-2.447-3.795c-.525-.814-.935-2.252-.935-3.274v-3.91c0-.598-.422-1.295-.902-1.49-.02-.008-2.272-.886-7.381-.886s-7.36.878-7.383.886c-.478.195-.9.892-.9 1.49v3.91c0 1.022-.41 2.46-.935 3.274l-2.447 3.795c-.375.583-.705 1.736-.705 2.468v4.58c0 .515.355.933.791.933H29.08c.436 0 .79-.418.79-.932z" clip-path="url(&quot;#k0t2d&quot;)"/></g></g></g></svg>